<svg xmlns="http://www.w3.org/2000/svg" xmlns:xlink="http://www.w3.org/1999/xlink"
    style="margin:auto;background:#1f2330;display:block;z-index:1;position:relative" width="925" height="125"
    preserveAspectRatio="xMidYMid" viewBox="0 0 925 125">
    <g transform="translate(462.5,62.5) scale(1,1) translate(-462.5,-62.5)">
        <defs>
            <path id="path-s9rsoqq9zsm-1" d="M-35 -35L35 -35L35 35L-35 35Z" fill="none" stroke="inherit"
                stroke-width="6.129032258064517" transform="scale(0.31)"></path>
            <path id="path-s9rsoqq9zsm-2" d="M0 -37A37 37 0 0 1 0 37A37 37 0 0 1 0 -37" fill="none" stroke="inherit"
                stroke-width="6.129032258064517" transform="scale(0.31)"></path>
            <path id="path-s9rsoqq9zsm-3" d="M0 -34.641L40 34.641L-40 34.641Z" fill="none" stroke="inherit"
                stroke-width="6.129032258064517" transform="scale(0.31)"></path>
        </defs>
        <path id="path0" d="M 55.66049647782151 92.2486282792186
c 0 33.56453776628811 -8.21259966621943 9.640877869040203 -17.853477535259636 9.640877869040203
S 19.95354140730224 125.8131660455067 19.95354140730224 92.2486282792186
s 8.21259966621943 -9.640877869040203 17.853477535259636 -9.640877869040203
S 55.66049647782151 58.68409051293048 55.66049647782151 92.2486282792186
z" fill="none" stroke="none"></path>
        <use xlink:href="#path-s9rsoqq9zsm-1" x="0" y="0" stroke="#8a7ea2">
            <animateMotion begin="-1.4912019030603108s" dur="17.969398431301066s" keyPoints="1;0" keyTimes="0;1"
                repeatCount="indefinite" calcMode="linear">
                <mpath xlink:href="#path0"></mpath>
            </animateMotion>
        </use>
        <path id="path1" d="M 103.11470076550265 72.76688697971241
c 0 34.53881665528065 -8.450987053951646 9.92072393289976 -18.371710986851404 9.92072393289976
S 66.37127879179982 107.30570363499305 66.37127879179982 72.76688697971241
s 8.450987053951646 -9.92072393289976 18.371710986851404 -9.92072393289976
S 103.11470076550265 38.22807032443176 103.11470076550265 72.76688697971241
z" fill="none" stroke="none"></path>
        <use xlink:href="#path-s9rsoqq9zsm-3" x="0" y="0" stroke="#c5b9df">
            <animateMotion begin="-1.0464224110916054s" dur="14.881370047362534s" keyPoints="0;1" keyTimes="0;1"
                repeatCount="indefinite" calcMode="linear">
                <mpath xlink:href="#path1"></mpath>
            </animateMotion>
        </use>
        <path id="path2" d="M 150.51197421681474 89.08304008312504
c 0 26.787352728839984 -6.55435226343957 7.694239613602974 -14.248591877042545 7.694239613602974
S 122.01479046272965 115.87039281196502 122.01479046272965 89.08304008312504
s 6.55435226343957 -7.694239613602974 14.248591877042545 -7.694239613602974
S 150.51197421681474 62.29568735428506 150.51197421681474 89.08304008312504
z" fill="none" stroke="none"></path>
        <use xlink:href="#path-s9rsoqq9zsm-3" x="0" y="0" stroke="#c5b9df">
            <animateMotion begin="-2.1743277861661148s" dur="12.511987545555385s" keyPoints="0;1" keyTimes="0;1"
                repeatCount="indefinite" calcMode="linear">
                <mpath xlink:href="#path2"></mpath>
            </animateMotion>
        </use>
        <path id="path3" d="M 237.9620080878056 96.08716789507432
c 0 59.62527784678788 -14.589163728469375 17.126409594290138 -31.71557332275951 17.126409594290138
S 174.53086144228655 155.7124457418622 174.53086144228655 96.08716789507432
s 14.589163728469375 -17.126409594290138 31.71557332275951 -17.126409594290138
S 237.9620080878056 36.461890048286435 237.9620080878056 96.08716789507432
z" fill="none" stroke="none"></path>
        <use xlink:href="#path-s9rsoqq9zsm-2" x="0" y="0" stroke="#8a7ea2">
            <animateMotion begin="-4.332027533829217s" dur="15.823756040571332s" keyPoints="0;1" keyTimes="0;1"
                repeatCount="indefinite" calcMode="linear">
                <mpath xlink:href="#path3"></mpath>
            </animateMotion>
        </use>
        <path id="path4" d="M 264.14026682924555 89.73433122161157
c 0 22.384460735589187 -5.477048903388843 6.429579147456469 -11.906628050845312 6.429579147456469
S 240.32701072755495 112.11879195720076 240.32701072755495 89.73433122161157
s 5.477048903388843 -6.429579147456469 11.906628050845312 -6.429579147456469
S 264.14026682924555 67.34987048602238 264.14026682924555 89.73433122161157
z" fill="none" stroke="none"></path>
        <use xlink:href="#path-s9rsoqq9zsm-3" x="0" y="0" stroke="#8a7ea2">
            <animateMotion begin="-1.1350873619652535s" dur="12.893176598504699s" keyPoints="1;0" keyTimes="0;1"
                repeatCount="indefinite" calcMode="linear">
                <mpath xlink:href="#path4"></mpath>
            </animateMotion>
        </use>
        <path id="path5" d="M 309.74206438261666 72.81338870000867
c 0 36.281331325164764 -8.877347026370101 10.421233465738815 -19.29858049210892 10.421233465738815
S 271.14490339839887 109.09472002517344 271.14490339839887 72.81338870000867
s 8.877347026370101 -10.421233465738815 19.29858049210892 -10.421233465738815
S 309.74206438261666 36.53205737484391 309.74206438261666 72.81338870000867
z" fill="none" stroke="none"></path>
        <use xlink:href="#path-s9rsoqq9zsm-3" x="0" y="0" stroke="#c5b9df">
            <animateMotion begin="-0.19455607747468462s" dur="13.75558327033291s" keyPoints="0;1" keyTimes="0;1"
                repeatCount="indefinite" calcMode="linear">
                <mpath xlink:href="#path5"></mpath>
            </animateMotion>
        </use>
        <path id="path6" d="M 362.936909168736 74.25652896232864
c 0 28.81702498788869 -7.050974199164253 8.277230581627602 -15.328204780791857 8.277230581627602
S 332.2804996071523 103.07355395021733 332.2804996071523 74.25652896232864
s 7.050974199164253 -8.277230581627602 15.328204780791857 -8.277230581627602
S 362.936909168736 45.43950397443996 362.936909168736 74.25652896232864
z" fill="none" stroke="none"></path>
        <use xlink:href="#path-s9rsoqq9zsm-1" x="0" y="0" stroke="#c5b9df">
            <animateMotion begin="-1.4521631280509228s" dur="19.979341922890555s" keyPoints="1;0" keyTimes="0;1"
                repeatCount="indefinite" calcMode="linear">
                <mpath xlink:href="#path6"></mpath>
            </animateMotion>
        </use>
        <path id="path7" d="M 417.22781063409303 97.26463461841276
c 0 52.91049363716636 -12.946184613349216 15.197694980888212 -28.143879594237426 15.197694980888212
S 360.94005144561817 150.17512825557912 360.94005144561817 97.26463461841276
s 12.946184613349216 -15.197694980888212 28.143879594237426 -15.197694980888212
S 417.22781063409303 44.354140981246395 417.22781063409303 97.26463461841276
z" fill="none" stroke="none"></path>
        <use xlink:href="#path-s9rsoqq9zsm-3" x="0" y="0" stroke="#8a7ea2">
            <animateMotion begin="-1.082490387195777s" dur="19.70628488607369s" keyPoints="0;1" keyTimes="0;1"
                repeatCount="indefinite" calcMode="linear">
                <mpath xlink:href="#path7"></mpath>
            </animateMotion>
        </use>
        <path id="path8" d="M 469.9520496177166 47.730460914089434
c 0 22.10914427410175 -5.409684237280215 6.350498887241993 -11.760183124522207 6.350498887241993
S 446.4316833686722 69.83960518819119 446.4316833686722 47.730460914089434
s 5.409684237280215 -6.350498887241993 11.760183124522207 -6.350498887241993
S 469.9520496177166 25.621316639987683 469.9520496177166 47.730460914089434
z" fill="none" stroke="none"></path>
        <use xlink:href="#path-s9rsoqq9zsm-1" x="0" y="0" stroke="#8a7ea2">
            <animateMotion begin="-3.6138358907676125s" dur="18.45899339343986s" keyPoints="1;0" keyTimes="0;1"
                repeatCount="indefinite" calcMode="linear">
                <mpath xlink:href="#path8"></mpath>
            </animateMotion>
        </use>
        <path id="path9" d="M 520.9058856516732 15.613692196256608
c 0 42.68372847945686 -10.443891010930932 12.260219882397184 -22.704110893328114 12.260219882397184
S 475.49766386501693 58.29742067571347 475.49766386501693 15.613692196256608
s 10.443891010930932 -12.260219882397184 22.704110893328114 -12.260219882397184
S 520.9058856516732 -27.070036283200253 520.9058856516732 15.613692196256608
z" fill="none" stroke="none"></path>
        <use xlink:href="#path-s9rsoqq9zsm-2" x="0" y="0" stroke="#c5b9df">
            <animateMotion begin="-0.09984306171839763s" dur="17.500119596183943s" keyPoints="1;0" keyTimes="0;1"
                repeatCount="indefinite" calcMode="linear">
                <mpath xlink:href="#path9"></mpath>
            </animateMotion>
        </use>
        <path id="path10" d="M 550.0192585064461 73.04487182829283
c 0 60.12771230907805 -14.71209982030633 17.27072587601178 -31.98282569631811 17.27072587601178
S 486.05360711380996 133.17258413737088 486.05360711380996 73.04487182829283
s 14.71209982030633 -17.27072587601178 31.98282569631811 -17.27072587601178
S 550.0192585064461 12.917159519214778 550.0192585064461 73.04487182829283
z" fill="none" stroke="none"></path>
        <use xlink:href="#path-s9rsoqq9zsm-1" x="0" y="0" stroke="#8a7ea2">
            <animateMotion begin="-0.6155142392702762s" dur="17.47041896005175s" keyPoints="0;1" keyTimes="0;1"
                repeatCount="indefinite" calcMode="linear">
                <mpath xlink:href="#path10"></mpath>
            </animateMotion>
        </use>
        <path id="path11" d="M 600.2577168578481 74.23815816427593
c 0 39.6199469959832 -9.694242350080994 11.380197541399431 -21.074439891480424 11.380197541399431
S 558.1088370748872 113.85810516025913 558.1088370748872 74.23815816427593
s 9.694242350080994 -11.380197541399431 21.074439891480424 -11.380197541399431
S 600.2577168578481 34.61821116829273 600.2577168578481 74.23815816427593
z" fill="none" stroke="none"></path>
        <use xlink:href="#path-s9rsoqq9zsm-1" x="0" y="0" stroke="#c5b9df">
            <animateMotion begin="-2.2627880802971347s" dur="13.715826010242079s" keyPoints="0;1" keyTimes="0;1"
                repeatCount="indefinite" calcMode="linear">
                <mpath xlink:href="#path11"></mpath>
            </animateMotion>
        </use>
        <path id="path12" d="M 647.2036606582086 52.00481411643954
c 0 43.38429585976239 -10.615306433771647 12.461446683123238 -23.076753116894885 12.461446683123238
S 601.0501544244188 95.38910997620192 601.0501544244188 52.00481411643954
s 10.615306433771647 -12.461446683123238 23.076753116894885 -12.461446683123238
S 647.2036606582086 8.620518256677151 647.2036606582086 52.00481411643954
z" fill="none" stroke="none"></path>
        <use xlink:href="#path-s9rsoqq9zsm-2" x="0" y="0" stroke="#c5b9df">
            <animateMotion begin="-0.7313650754970646s" dur="15.606928772803034s" keyPoints="0;1" keyTimes="0;1"
                repeatCount="indefinite" calcMode="linear">
                <mpath xlink:href="#path12"></mpath>
            </animateMotion>
        </use>
        <path id="path13" d="M 717.5307951056374 91.6287378295753
c 0 47.16335098747499 -11.539968858637495 13.546919964487497 -25.086888823124994 13.546919964487497
S 667.3570174593873 138.79208881705028 667.3570174593873 91.6287378295753
s 11.539968858637495 -13.546919964487497 25.086888823124994 -13.546919964487497
S 717.5307951056374 44.46538684210031 717.5307951056374 91.6287378295753
z" fill="none" stroke="none"></path>
        <use xlink:href="#path-s9rsoqq9zsm-3" x="0" y="0" stroke="#8a7ea2">
            <animateMotion begin="-2.0411595937309457s" dur="11.533802163265088s" keyPoints="1;0" keyTimes="0;1"
                repeatCount="indefinite" calcMode="linear">
                <mpath xlink:href="#path13"></mpath>
            </animateMotion>
        </use>
        <path id="path14" d="M 753.887740240205 66.60681530614772
c 0 49.95048665002442 -12.221927584580442 14.347480207985738 -26.56940779256618 14.347480207985738
S 700.7489246550726 116.55730195617215 700.7489246550726 66.60681530614772
s 12.221927584580442 -14.347480207985738 26.56940779256618 -14.347480207985738
S 753.887740240205 16.6563286561233 753.887740240205 66.60681530614772
z" fill="none" stroke="none"></path>
        <use xlink:href="#path-s9rsoqq9zsm-3" x="0" y="0" stroke="#8a7ea2">
            <animateMotion begin="-4.71314933967429s" dur="10.715971928173344s" keyPoints="1;0" keyTimes="0;1"
                repeatCount="indefinite" calcMode="linear">
                <mpath xlink:href="#path14"></mpath>
            </animateMotion>
        </use>
        <path id="path15" d="M 834.9121132569417 22.337573230291003
c 0 56.82891722417862 -13.904947831447958 16.32319962822152 -30.228147459669476 16.32319962822152
S 774.4558183376028 79.16649045446962 774.4558183376028 22.337573230291003
s 13.904947831447958 -16.32319962822152 30.228147459669476 -16.32319962822152
S 834.9121132569417 -34.49134399388761 834.9121132569417 22.337573230291003
z" fill="none" stroke="none"></path>
        <use xlink:href="#path-s9rsoqq9zsm-1" x="0" y="0" stroke="#8a7ea2">
            <animateMotion begin="-0.5449186323860178s" dur="19.750797065017057s" keyPoints="1;0" keyTimes="0;1"
                repeatCount="indefinite" calcMode="linear">
                <mpath xlink:href="#path15"></mpath>
            </animateMotion>
        </use>
        <path id="path16" d="M 865.3994538264631 92.01316583304738
c 0 37.68651112120482 -9.221167614762882 10.824848939069472 -20.046016553832352 10.824848939069472
S 825.3074207187983 129.6996769542522 825.3074207187983 92.01316583304738
s 9.221167614762882 -10.824848939069472 20.046016553832352 -10.824848939069472
S 865.3994538264631 54.32665471184256 865.3994538264631 92.01316583304738
z" fill="none" stroke="none"></path>
        <use xlink:href="#path-s9rsoqq9zsm-1" x="0" y="0" stroke="#8a7ea2">
            <animateMotion begin="-0.4849514057553106s" dur="10.92564135394808s" keyPoints="1;0" keyTimes="0;1"
                repeatCount="indefinite" calcMode="linear">
                <mpath xlink:href="#path16"></mpath>
            </animateMotion>
        </use>
        <path id="path17" d="M 908.3865754951962 47.08043942774337
c 0 23.783101206738984 -5.819269444202091 6.831316304063326 -12.650585748265417 6.831316304063326
S 883.0854039986655 70.86354063448235 883.0854039986655 47.08043942774337
s 5.819269444202091 -6.831316304063326 12.650585748265417 -6.831316304063326
S 908.3865754951962 23.297338221004388 908.3865754951962 47.08043942774337
z" fill="none" stroke="none"></path>
        <use xlink:href="#path-s9rsoqq9zsm-3" x="0" y="0" stroke="#8a7ea2">
            <animateMotion begin="-4.758476709811029s" dur="19.92196388735954s" keyPoints="1;0" keyTimes="0;1"
                repeatCount="indefinite" calcMode="linear">
                <mpath xlink:href="#path17"></mpath>
            </animateMotion>
        </use>
    </g>
    <g filter="url(#filter0_d_2_2)">
        <path
            d="M146.765 88V41.28H152.525V61.248H167.501V41.28H173.261V88H167.501V66.496H152.525V88H146.765ZM184.628 88V82.752H197.108V58.048H186.228V52.8H202.868V82.752H214.708V88H184.628ZM199.348 46.464C197.94 46.464 196.83 46.1013 196.02 45.376C195.209 44.6507 194.804 43.6693 194.804 42.432C194.804 41.152 195.209 40.1493 196.02 39.424C196.83 38.656 197.94 38.272 199.348 38.272C200.756 38.272 201.865 38.656 202.676 39.424C203.486 40.1493 203.892 41.152 203.892 42.432C203.892 43.6693 203.486 44.6507 202.676 45.376C201.865 46.1013 200.756 46.464 199.348 46.464ZM228.123 98.24L233.243 78.336H241.563L233.243 98.24H228.123ZM301.033 88V82.752H310.569V46.528H301.033V41.28H325.993V46.528H316.457V82.752H325.993V88H301.033ZM342.928 58.24L348.048 38.336H356.368L348.048 58.24H342.928ZM375.286 88V52.8H380.343V57.024H381.495L380.599 58.56C380.599 56.5973 381.111 55.04 382.135 53.888C383.201 52.736 384.631 52.16 386.423 52.16C388.385 52.16 389.9 52.8853 390.967 54.336C392.033 55.7867 392.567 57.8347 392.567 60.48L390.839 57.024H393.527L392.311 58.56C392.311 56.5973 392.844 55.04 393.911 53.888C395.02 52.736 396.471 52.16 398.263 52.16C400.481 52.16 402.188 52.992 403.382 54.656C404.62 56.32 405.239 58.5173 405.239 61.248V88H399.927V61.184C399.927 59.7333 399.607 58.6027 398.967 57.792C398.369 56.9813 397.473 56.576 396.279 56.576C395.127 56.576 394.209 56.9813 393.527 57.792C392.887 58.56 392.567 59.6693 392.567 61.12V88H387.958V61.184C387.958 59.6907 387.617 58.56 386.935 57.792C386.295 56.9813 385.377 56.576 384.183 56.576C382.988 56.576 382.092 56.9813 381.495 57.792C380.897 58.56 380.599 59.6693 380.599 61.12V88H375.286ZM465.925 88.512C463.535 88.512 461.445 88.1493 459.653 87.424C457.903 86.656 456.495 85.5893 455.429 84.224C454.405 82.8587 453.786 81.2373 453.573 79.36H459.333C459.589 80.5973 460.271 81.5787 461.381 82.304C462.533 83.0293 464.047 83.392 465.925 83.392H468.613C470.874 83.392 472.559 82.944 473.669 82.048C474.778 81.1093 475.333 79.872 475.333 78.336C475.333 76.8427 474.821 75.6693 473.797 74.816C472.815 73.92 471.343 73.3227 469.381 73.024L464.645 72.256C461.189 71.6587 458.607 70.592 456.901 69.056C455.237 67.4773 454.405 65.1947 454.405 62.208C454.405 59.0507 455.407 56.6187 457.413 54.912C459.418 53.1627 462.426 52.288 466.437 52.288H468.869C472.239 52.288 474.949 53.0773 476.997 54.656C479.045 56.2347 480.282 58.368 480.708 61.056H474.949C474.693 59.9467 474.053 59.072 473.029 58.432C472.005 57.7493 470.618 57.408 468.869 57.408H466.437C464.261 57.408 462.661 57.8133 461.637 58.624C460.655 59.4347 460.165 60.6507 460.165 62.272C460.165 63.7227 460.591 64.7893 461.445 65.472C462.298 66.1547 463.642 66.6453 465.477 66.944L470.213 67.712C474.01 68.3093 476.762 69.4187 478.469 71.04C480.218 72.6613 481.093 75.008 481.093 78.08C481.093 81.3227 480.047 83.8827 477.957 85.76C475.909 87.5947 472.794 88.512 468.613 88.512H465.925ZM494.06 88L488.428 52.8H493.548L497.068 77.76C497.196 78.6987 497.324 79.7227 497.452 80.832C497.622 81.8987 497.75 82.7947 497.836 83.52C497.921 82.7947 498.049 81.8987 498.22 80.832C498.433 79.7227 498.604 78.6987 498.732 77.76L502.635 52.8H508.14L512.044 77.76C512.172 78.6987 512.321 79.7227 512.492 80.832C512.705 81.8987 512.854 82.7947 512.94 83.52C513.025 82.7947 513.153 81.8987 513.324 80.832C513.537 79.7227 513.708 78.6987 513.836 77.76L517.484 52.8H522.347L516.46 88H510.124L506.348 63.68C506.177 62.4853 505.985 61.2907 505.772 60.096C505.558 58.9013 505.409 57.9627 505.324 57.28C505.238 57.9627 505.11 58.9013 504.94 60.096C504.769 61.2907 504.577 62.4853 504.364 63.68L500.396 88H494.06ZM542.675 88.512C540.285 88.512 538.195 88.1493 536.403 87.424C534.653 86.656 533.245 85.5893 532.179 84.224C531.155 82.8587 530.536 81.2373 530.323 79.36H536.083C536.339 80.5973 537.021 81.5787 538.131 82.304C539.283 83.0293 540.797 83.392 542.675 83.392H545.363C547.624 83.392 549.309 82.944 550.419 82.048C551.528 81.1093 552.083 79.872 552.083 78.336C552.083 76.8427 551.571 75.6693 550.547 74.816C549.565 73.92 548.093 73.3227 546.131 73.024L541.395 72.256C537.939 71.6587 535.357 70.592 533.651 69.056C531.987 67.4773 531.155 65.1947 531.155 62.208C531.155 59.0507 532.157 56.6187 534.163 54.912C536.168 53.1627 539.176 52.288 543.187 52.288H545.619C548.989 52.288 551.699 53.0773 553.747 54.656C555.795 56.2347 557.032 58.368 557.458 61.056H551.699C551.443 59.9467 550.803 59.072 549.779 58.432C548.755 57.7493 547.368 57.408 545.619 57.408H543.187C541.011 57.408 539.411 57.8133 538.387 58.624C537.405 59.4347 536.915 60.6507 536.915 62.272C536.915 63.7227 537.341 64.7893 538.195 65.472C539.048 66.1547 540.392 66.6453 542.227 66.944L546.963 67.712C550.76 68.3093 553.512 69.4187 555.219 71.04C556.968 72.6613 557.843 75.008 557.843 78.08C557.843 81.3227 556.797 83.8827 554.707 85.76C552.659 87.5947 549.544 88.512 545.363 88.512H542.675ZM568.826 88V41.28H574.586V52.8V59.52H575.802L574.586 60.864C574.586 58.0907 575.418 55.9573 577.082 54.464C578.746 52.928 581.05 52.16 583.994 52.16C587.535 52.16 590.351 53.248 592.442 55.424C594.532 57.6 595.578 60.5653 595.578 64.32V88H589.818V64.96C589.818 62.4427 589.135 60.5013 587.77 59.136C586.447 57.728 584.634 57.024 582.33 57.024C579.94 57.024 578.042 57.7707 576.634 59.264C575.268 60.7573 574.586 62.8693 574.586 65.6V88H568.826ZM617.441 88.64C613.729 88.64 610.806 87.7013 608.673 85.824C606.539 83.904 605.473 81.3227 605.473 78.08C605.473 74.7947 606.539 72.2133 608.673 70.336C610.806 68.4587 613.686 67.52 617.312 67.52H628.193V64C628.193 61.824 627.531 60.16 626.209 59.008C624.929 57.8133 623.094 57.216 620.705 57.216C618.614 57.216 616.865 57.664 615.457 58.56C614.049 59.4133 613.238 60.5867 613.025 62.08H607.265C607.649 59.0507 609.078 56.64 611.553 54.848C614.027 53.056 617.121 52.16 620.833 52.16C624.886 52.16 628.086 53.2053 630.433 55.296C632.779 57.3867 633.953 60.224 633.953 63.808V88H628.321V81.28H627.361L628.321 80.32C628.321 82.88 627.318 84.9067 625.313 86.4C623.35 87.8933 620.726 88.64 617.441 88.64ZM618.849 84.096C621.579 84.096 623.819 83.4133 625.569 82.048C627.318 80.6827 628.193 78.9333 628.193 76.8V71.808H617.441C615.521 71.808 614.006 72.3413 612.897 73.408C611.787 74.4747 611.233 75.9253 611.233 77.76C611.233 79.7227 611.894 81.28 613.217 82.432C614.582 83.5413 616.459 84.096 618.849 84.096ZM656.84 88.64C653.341 88.64 650.504 87.4667 648.328 85.12C646.194 82.7733 645.128 79.5947 645.128 75.584V65.28C645.128 61.2267 646.194 58.0267 648.328 55.68C650.461 53.3333 653.298 52.16 656.84 52.16C659.741 52.16 662.066 52.9493 663.816 54.528C665.565 56.1067 666.44 58.2187 666.44 60.864L665.288 59.52H666.568L666.44 51.52V41.28H672.2V88H666.44V81.28H665.288L666.44 79.936C666.44 82.624 665.565 84.7573 663.816 86.336C662.066 87.872 659.741 88.64 656.84 88.64ZM658.76 83.648C661.149 83.648 663.026 82.9013 664.392 81.408C665.757 79.9147 666.44 77.8453 666.44 75.2V65.6C666.44 62.9547 665.757 60.8853 664.392 59.392C663.026 57.8987 661.149 57.152 658.76 57.152C656.328 57.152 654.408 57.8773 653 59.328C651.592 60.7787 650.888 62.8693 650.888 65.6V75.2C650.888 77.9307 651.592 80.0213 653 81.472C654.408 82.9227 656.328 83.648 658.76 83.648ZM697.263 88.512C694.447 88.512 692.015 87.9787 689.967 86.912C687.919 85.8453 686.319 84.3093 685.167 82.304C684.057 80.256 683.503 77.8453 683.503 75.072V65.728C683.503 62.912 684.057 60.5013 685.167 58.496C686.319 56.4907 687.919 54.9547 689.967 53.888C692.015 52.8213 694.447 52.288 697.263 52.288C700.079 52.288 702.511 52.8213 704.559 53.888C706.607 54.9547 708.185 56.4907 709.295 58.496C710.447 60.5013 711.023 62.8907 711.023 65.664V75.072C711.023 77.8453 710.447 80.256 709.295 82.304C708.185 84.3093 706.607 85.8453 704.559 86.912C702.511 87.9787 700.079 88.512 697.263 88.512ZM697.263 83.392C699.78 83.392 701.743 82.688 703.151 81.28C704.559 79.872 705.263 77.8027 705.263 75.072V65.728C705.263 62.9973 704.559 60.928 703.151 59.52C701.743 58.112 699.78 57.408 697.263 57.408C694.788 57.408 692.825 58.112 691.375 59.52C689.967 60.928 689.263 62.9973 689.263 65.728V75.072C689.263 77.8027 689.967 79.872 691.375 81.28C692.825 82.688 694.788 83.392 697.263 83.392ZM724.31 88L718.678 52.8H723.798L727.318 77.76C727.446 78.6987 727.574 79.7227 727.702 80.832C727.872 81.8987 728 82.7947 728.086 83.52C728.171 82.7947 728.299 81.8987 728.47 80.832C728.683 79.7227 728.854 78.6987 728.982 77.76L732.885 52.8H738.39L742.294 77.76C742.422 78.6987 742.571 79.7227 742.742 80.832C742.955 81.8987 743.104 82.7947 743.19 83.52C743.275 82.7947 743.403 81.8987 743.574 80.832C743.787 79.7227 743.958 78.6987 744.086 77.76L747.734 52.8H752.597L746.71 88H740.374L736.598 63.68C736.427 62.4853 736.235 61.2907 736.022 60.096C735.808 58.9013 735.659 57.9627 735.574 57.28C735.488 57.9627 735.36 58.9013 735.19 60.096C735.019 61.2907 734.827 62.4853 734.614 63.68L730.646 88H724.31ZM772.925 88.512C770.535 88.512 768.445 88.1493 766.653 87.424C764.903 86.656 763.495 85.5893 762.429 84.224C761.405 82.8587 760.786 81.2373 760.573 79.36H766.333C766.589 80.5973 767.271 81.5787 768.381 82.304C769.533 83.0293 771.047 83.392 772.925 83.392H775.613C777.874 83.392 779.559 82.944 780.669 82.048C781.778 81.1093 782.333 79.872 782.333 78.336C782.333 76.8427 781.821 75.6693 780.797 74.816C779.815 73.92 778.343 73.3227 776.381 73.024L771.645 72.256C768.189 71.6587 765.607 70.592 763.901 69.056C762.237 67.4773 761.405 65.1947 761.405 62.208C761.405 59.0507 762.407 56.6187 764.413 54.912C766.418 53.1627 769.426 52.288 773.437 52.288H775.869C779.239 52.288 781.949 53.0773 783.997 54.656C786.045 56.2347 787.282 58.368 787.708 61.056H781.949C781.693 59.9467 781.053 59.072 780.029 58.432C779.005 57.7493 777.618 57.408 775.869 57.408H773.437C771.261 57.408 769.661 57.8133 768.637 58.624C767.655 59.4347 767.165 60.6507 767.165 62.272C767.165 63.7227 767.591 64.7893 768.445 65.472C769.298 66.1547 770.642 66.6453 772.477 66.944L777.213 67.712C781.01 68.3093 783.762 69.4187 785.469 71.04C787.218 72.6613 788.093 75.008 788.093 78.08C788.093 81.3227 787.047 83.8827 784.957 85.76C782.909 87.5947 779.794 88.512 775.613 88.512H772.925Z"
            fill="#49516D" />
        <path
            d="M141.765 86V39.28H147.525V59.248H162.501V39.28H168.261V86H162.501V64.496H147.525V86H141.765ZM179.628 86V80.752H192.108V56.048H181.228V50.8H197.868V80.752H209.708V86H179.628ZM194.348 44.464C192.94 44.464 191.83 44.1013 191.02 43.376C190.209 42.6507 189.804 41.6693 189.804 40.432C189.804 39.152 190.209 38.1493 191.02 37.424C191.83 36.656 192.94 36.272 194.348 36.272C195.756 36.272 196.865 36.656 197.676 37.424C198.486 38.1493 198.892 39.152 198.892 40.432C198.892 41.6693 198.486 42.6507 197.676 43.376C196.865 44.1013 195.756 44.464 194.348 44.464ZM223.123 96.24L228.243 76.336H236.563L228.243 96.24H223.123ZM296.033 86V80.752H305.569V44.528H296.033V39.28H320.993V44.528H311.457V80.752H320.993V86H296.033ZM337.928 56.24L343.048 36.336H351.368L343.048 56.24H337.928ZM370.286 86V50.8H375.343V55.024H376.495L375.599 56.56C375.599 54.5973 376.111 53.04 377.135 51.888C378.201 50.736 379.631 50.16 381.423 50.16C383.385 50.16 384.9 50.8853 385.967 52.336C387.033 53.7867 387.567 55.8347 387.567 58.48L385.839 55.024H388.527L387.311 56.56C387.311 54.5973 387.844 53.04 388.911 51.888C390.02 50.736 391.471 50.16 393.263 50.16C395.481 50.16 397.188 50.992 398.382 52.656C399.62 54.32 400.239 56.5173 400.239 59.248V86H394.927V59.184C394.927 57.7333 394.607 56.6027 393.967 55.792C393.369 54.9813 392.473 54.576 391.279 54.576C390.127 54.576 389.209 54.9813 388.527 55.792C387.887 56.56 387.567 57.6693 387.567 59.12V86H382.958V59.184C382.958 57.6907 382.617 56.56 381.935 55.792C381.295 54.9813 380.377 54.576 379.183 54.576C377.988 54.576 377.092 54.9813 376.495 55.792C375.897 56.56 375.599 57.6693 375.599 59.12V86H370.286ZM460.925 86.512C458.535 86.512 456.445 86.1493 454.653 85.424C452.903 84.656 451.495 83.5893 450.429 82.224C449.405 80.8587 448.786 79.2373 448.573 77.36H454.333C454.589 78.5973 455.271 79.5787 456.381 80.304C457.533 81.0293 459.047 81.392 460.925 81.392H463.613C465.874 81.392 467.559 80.944 468.669 80.048C469.778 79.1093 470.333 77.872 470.333 76.336C470.333 74.8427 469.821 73.6693 468.797 72.816C467.815 71.92 466.343 71.3227 464.381 71.024L459.645 70.256C456.189 69.6587 453.607 68.592 451.901 67.056C450.237 65.4773 449.405 63.1947 449.405 60.208C449.405 57.0507 450.407 54.6187 452.413 52.912C454.418 51.1627 457.426 50.288 461.437 50.288H463.869C467.239 50.288 469.949 51.0773 471.997 52.656C474.045 54.2347 475.282 56.368 475.708 59.056H469.949C469.693 57.9467 469.053 57.072 468.029 56.432C467.005 55.7493 465.618 55.408 463.869 55.408H461.437C459.261 55.408 457.661 55.8133 456.637 56.624C455.655 57.4347 455.165 58.6507 455.165 60.272C455.165 61.7227 455.591 62.7893 456.445 63.472C457.298 64.1547 458.642 64.6453 460.477 64.944L465.213 65.712C469.01 66.3093 471.762 67.4187 473.469 69.04C475.218 70.6613 476.093 73.008 476.093 76.08C476.093 79.3227 475.047 81.8827 472.957 83.76C470.909 85.5947 467.794 86.512 463.613 86.512H460.925ZM489.06 86L483.428 50.8H488.548L492.068 75.76C492.196 76.6987 492.324 77.7227 492.452 78.832C492.622 79.8987 492.75 80.7947 492.836 81.52C492.921 80.7947 493.049 79.8987 493.22 78.832C493.433 77.7227 493.604 76.6987 493.732 75.76L497.635 50.8H503.14L507.044 75.76C507.172 76.6987 507.321 77.7227 507.492 78.832C507.705 79.8987 507.854 80.7947 507.94 81.52C508.025 80.7947 508.153 79.8987 508.324 78.832C508.537 77.7227 508.708 76.6987 508.836 75.76L512.484 50.8H517.347L511.46 86H505.124L501.348 61.68C501.177 60.4853 500.985 59.2907 500.772 58.096C500.558 56.9013 500.409 55.9627 500.324 55.28C500.238 55.9627 500.11 56.9013 499.94 58.096C499.769 59.2907 499.577 60.4853 499.364 61.68L495.396 86H489.06ZM537.675 86.512C535.285 86.512 533.195 86.1493 531.403 85.424C529.653 84.656 528.245 83.5893 527.179 82.224C526.155 80.8587 525.536 79.2373 525.323 77.36H531.083C531.339 78.5973 532.021 79.5787 533.131 80.304C534.283 81.0293 535.797 81.392 537.675 81.392H540.363C542.624 81.392 544.309 80.944 545.419 80.048C546.528 79.1093 547.083 77.872 547.083 76.336C547.083 74.8427 546.571 73.6693 545.547 72.816C544.565 71.92 543.093 71.3227 541.131 71.024L536.395 70.256C532.939 69.6587 530.357 68.592 528.651 67.056C526.987 65.4773 526.155 63.1947 526.155 60.208C526.155 57.0507 527.157 54.6187 529.163 52.912C531.168 51.1627 534.176 50.288 538.187 50.288H540.619C543.989 50.288 546.699 51.0773 548.747 52.656C550.795 54.2347 552.032 56.368 552.458 59.056H546.699C546.443 57.9467 545.803 57.072 544.779 56.432C543.755 55.7493 542.368 55.408 540.619 55.408H538.187C536.011 55.408 534.411 55.8133 533.387 56.624C532.405 57.4347 531.915 58.6507 531.915 60.272C531.915 61.7227 532.341 62.7893 533.195 63.472C534.048 64.1547 535.392 64.6453 537.227 64.944L541.963 65.712C545.76 66.3093 548.512 67.4187 550.219 69.04C551.968 70.6613 552.843 73.008 552.843 76.08C552.843 79.3227 551.797 81.8827 549.707 83.76C547.659 85.5947 544.544 86.512 540.363 86.512H537.675ZM563.826 86V39.28H569.586V50.8V57.52H570.802L569.586 58.864C569.586 56.0907 570.418 53.9573 572.082 52.464C573.746 50.928 576.05 50.16 578.994 50.16C582.535 50.16 585.351 51.248 587.442 53.424C589.532 55.6 590.578 58.5653 590.578 62.32V86H584.818V62.96C584.818 60.4427 584.135 58.5013 582.77 57.136C581.447 55.728 579.634 55.024 577.33 55.024C574.94 55.024 573.042 55.7707 571.634 57.264C570.268 58.7573 569.586 60.8693 569.586 63.6V86H563.826ZM612.441 86.64C608.729 86.64 605.806 85.7013 603.673 83.824C601.539 81.904 600.473 79.3227 600.473 76.08C600.473 72.7947 601.539 70.2133 603.673 68.336C605.806 66.4587 608.686 65.52 612.312 65.52H623.193V62C623.193 59.824 622.531 58.16 621.209 57.008C619.929 55.8133 618.094 55.216 615.705 55.216C613.614 55.216 611.865 55.664 610.457 56.56C609.049 57.4133 608.238 58.5867 608.025 60.08H602.265C602.649 57.0507 604.078 54.64 606.553 52.848C609.027 51.056 612.121 50.16 615.833 50.16C619.886 50.16 623.086 51.2053 625.433 53.296C627.779 55.3867 628.953 58.224 628.953 61.808V86H623.321V79.28H622.361L623.321 78.32C623.321 80.88 622.318 82.9067 620.313 84.4C618.35 85.8933 615.726 86.64 612.441 86.64ZM613.849 82.096C616.579 82.096 618.819 81.4133 620.569 80.048C622.318 78.6827 623.193 76.9333 623.193 74.8V69.808H612.441C610.521 69.808 609.006 70.3413 607.897 71.408C606.787 72.4747 606.233 73.9253 606.233 75.76C606.233 77.7227 606.894 79.28 608.217 80.432C609.582 81.5413 611.459 82.096 613.849 82.096ZM651.84 86.64C648.341 86.64 645.504 85.4667 643.328 83.12C641.194 80.7733 640.128 77.5947 640.128 73.584V63.28C640.128 59.2267 641.194 56.0267 643.328 53.68C645.461 51.3333 648.298 50.16 651.84 50.16C654.741 50.16 657.066 50.9493 658.816 52.528C660.565 54.1067 661.44 56.2187 661.44 58.864L660.288 57.52H661.568L661.44 49.52V39.28H667.2V86H661.44V79.28H660.288L661.44 77.936C661.44 80.624 660.565 82.7573 658.816 84.336C657.066 85.872 654.741 86.64 651.84 86.64ZM653.76 81.648C656.149 81.648 658.026 80.9013 659.392 79.408C660.757 77.9147 661.44 75.8453 661.44 73.2V63.6C661.44 60.9547 660.757 58.8853 659.392 57.392C658.026 55.8987 656.149 55.152 653.76 55.152C651.328 55.152 649.408 55.8773 648 57.328C646.592 58.7787 645.888 60.8693 645.888 63.6V73.2C645.888 75.9307 646.592 78.0213 648 79.472C649.408 80.9227 651.328 81.648 653.76 81.648ZM692.263 86.512C689.447 86.512 687.015 85.9787 684.967 84.912C682.919 83.8453 681.319 82.3093 680.167 80.304C679.057 78.256 678.503 75.8453 678.503 73.072V63.728C678.503 60.912 679.057 58.5013 680.167 56.496C681.319 54.4907 682.919 52.9547 684.967 51.888C687.015 50.8213 689.447 50.288 692.263 50.288C695.079 50.288 697.511 50.8213 699.559 51.888C701.607 52.9547 703.185 54.4907 704.295 56.496C705.447 58.5013 706.023 60.8907 706.023 63.664V73.072C706.023 75.8453 705.447 78.256 704.295 80.304C703.185 82.3093 701.607 83.8453 699.559 84.912C697.511 85.9787 695.079 86.512 692.263 86.512ZM692.263 81.392C694.78 81.392 696.743 80.688 698.151 79.28C699.559 77.872 700.263 75.8027 700.263 73.072V63.728C700.263 60.9973 699.559 58.928 698.151 57.52C696.743 56.112 694.78 55.408 692.263 55.408C689.788 55.408 687.825 56.112 686.375 57.52C684.967 58.928 684.263 60.9973 684.263 63.728V73.072C684.263 75.8027 684.967 77.872 686.375 79.28C687.825 80.688 689.788 81.392 692.263 81.392ZM719.31 86L713.678 50.8H718.798L722.318 75.76C722.446 76.6987 722.574 77.7227 722.702 78.832C722.872 79.8987 723 80.7947 723.086 81.52C723.171 80.7947 723.299 79.8987 723.47 78.832C723.683 77.7227 723.854 76.6987 723.982 75.76L727.885 50.8H733.39L737.294 75.76C737.422 76.6987 737.571 77.7227 737.742 78.832C737.955 79.8987 738.104 80.7947 738.19 81.52C738.275 80.7947 738.403 79.8987 738.574 78.832C738.787 77.7227 738.958 76.6987 739.086 75.76L742.734 50.8H747.597L741.71 86H735.374L731.598 61.68C731.427 60.4853 731.235 59.2907 731.022 58.096C730.808 56.9013 730.659 55.9627 730.574 55.28C730.488 55.9627 730.36 56.9013 730.19 58.096C730.019 59.2907 729.827 60.4853 729.614 61.68L725.646 86H719.31ZM767.925 86.512C765.535 86.512 763.445 86.1493 761.653 85.424C759.903 84.656 758.495 83.5893 757.429 82.224C756.405 80.8587 755.786 79.2373 755.573 77.36H761.333C761.589 78.5973 762.271 79.5787 763.381 80.304C764.533 81.0293 766.047 81.392 767.925 81.392H770.613C772.874 81.392 774.559 80.944 775.669 80.048C776.778 79.1093 777.333 77.872 777.333 76.336C777.333 74.8427 776.821 73.6693 775.797 72.816C774.815 71.92 773.343 71.3227 771.381 71.024L766.645 70.256C763.189 69.6587 760.607 68.592 758.901 67.056C757.237 65.4773 756.405 63.1947 756.405 60.208C756.405 57.0507 757.407 54.6187 759.413 52.912C761.418 51.1627 764.426 50.288 768.437 50.288H770.869C774.239 50.288 776.949 51.0773 778.997 52.656C781.045 54.2347 782.282 56.368 782.708 59.056H776.949C776.693 57.9467 776.053 57.072 775.029 56.432C774.005 55.7493 772.618 55.408 770.869 55.408H768.437C766.261 55.408 764.661 55.8133 763.637 56.624C762.655 57.4347 762.165 58.6507 762.165 60.272C762.165 61.7227 762.591 62.7893 763.445 63.472C764.298 64.1547 765.642 64.6453 767.477 64.944L772.213 65.712C776.01 66.3093 778.762 67.4187 780.469 69.04C782.218 70.6613 783.093 73.008 783.093 76.08C783.093 79.3227 782.047 81.8827 779.957 83.76C777.909 85.5947 774.794 86.512 770.613 86.512H767.925Z"
            fill="#C5B9DF" />
    </g>
    <defs>
        <filter id="filter0_d_2_2" x="-4" y="0" width="933" height="133" filterUnits="userSpaceOnUse"
            color-interpolation-filters="sRGB">
            <feFlood flood-opacity="0" result="BackgroundImageFix" />
            <feColorMatrix in="SourceAlpha" type="matrix" values="0 0 0 0 0 0 0 0 0 0 0 0 0 0 0 0 0 0 127 0"
                result="hardAlpha" />
            <feOffset dy="4" />
            <feGaussianBlur stdDeviation="2" />
            <feComposite in2="hardAlpha" operator="out" />
            <feColorMatrix type="matrix" values="0 0 0 0 0 0 0 0 0 0 0 0 0 0 0 0 0 0 0.25 0" />
            <feBlend mode="normal" in2="BackgroundImageFix" result="effect1_dropShadow_2_2" />
            <feBlend mode="normal" in="SourceGraphic" in2="effect1_dropShadow_2_2" result="shape" />
        </filter>
    </defs>
</svg>