<svg width="402" height="32" viewBox="0 0 402 32" fill="none" xmlns="http://www.w3.org/2000/svg">
<path d="M31.5 0.409241L14.75 2.86774V15.3255L31.5 15.192V0.409241ZM0.411746 16.6772L0.412496 27.2782L13.1102 29.024L13.1002 16.7597L0.411746 16.6772ZM14.6167 16.8472L14.6402 29.2135L31.4842 31.5907L31.4882 16.875L14.6167 16.8472ZM0.402496 4.82424L0.414246 15.42L13.112 15.3477L13.1062 3.09374L0.402496 4.82424Z" fill="#00ADEF"/>
<path d="M37.914 11.2608C37.914 11.2608 37.1573 10.713 38.0665 9.98252L40.1835 8.08402C40.1835 8.08402 40.79 7.44427 41.4308 8.00202L60.9745 22.834V29.9465C60.9745 29.9465 60.9648 31.0635 59.5353 30.9405L37.914 11.2608Z" fill="#2489CA"/>
<path d="M42.9522 15.8447L37.914 20.4355C37.914 20.4355 37.3965 20.8212 37.914 21.5117L40.253 23.6435C40.253 23.6435 40.8085 24.2422 41.63 23.5615L46.9697 19.502L42.9522 15.8447Z" fill="#1070B3"/>
<path d="M51.796 15.8827L61.0343 8.81148L60.9745 1.73723C60.9745 1.73723 60.58 0.193233 59.2638 0.997484L46.9698 12.2127L51.796 15.8827Z" fill="#0877B9"/>
<path d="M59.535 30.9492C60.0713 31.5 60.7218 31.3192 60.7218 31.3192L67.921 27.7637C68.8428 27.1337 68.7138 26.3525 68.7138 26.3525V5.11623C68.7138 4.18248 67.7608 3.86023 67.7608 3.86023L61.5205 0.844984C60.1573 0.000234067 59.2638 0.997484 59.2638 0.997484C59.2638 0.997484 60.412 0.168234 60.9745 1.73748V29.8167C60.9745 30.01 60.9335 30.1992 60.8515 30.3702C60.6875 30.7032 60.33 31.0127 59.4755 30.883L59.535 30.9492Z" fill="#3C99D4"/>
<g clip-path="url(#clip0_9_45)">
<path d="M85.375 32.25C88.35 32.25 90.75 29.85 90.75 26.875V21.5H85.375C82.4 21.5 80 23.9 80 26.875C80 29.85 82.4 32.25 85.375 32.25Z" fill="#0ACF83"/>
<path d="M80 16.125C80 13.15 82.4 10.75 85.375 10.75H90.75V21.5H85.375C82.4 21.5 80 19.1 80 16.125Z" fill="#A259FF"/>
<path d="M80 5.375C80 2.4 82.4 0 85.375 0H90.75V10.75H85.375C82.4 10.75 80 8.35 80 5.375Z" fill="#F24E1E"/>
<path d="M90.75 0H96.125C99.1 0 101.5 2.4 101.5 5.375C101.5 8.35 99.1 10.75 96.125 10.75H90.75V0Z" fill="#FF7262"/>
<path d="M101.5 16.125C101.5 19.1 99.1 21.5 96.125 21.5C93.15 21.5 90.75 19.1 90.75 16.125C90.75 13.15 93.15 10.75 96.125 10.75C99.1 10.75 101.5 13.15 101.5 16.125Z" fill="#1ABCFE"/>
</g>
<path d="M142.185 14.5945L128.406 0.816011C127.613 0.0225112 126.326 0.0225112 125.532 0.816011L122.671 3.67751L126.301 7.30701C127.144 7.02226 128.111 7.21326 128.784 7.88551C129.104 8.20617 129.328 8.61051 129.429 9.05231C129.531 9.4941 129.506 9.95551 129.357 10.3838L132.855 13.8823C133.701 13.5905 134.678 13.779 135.353 14.456C136.298 15.4003 136.298 16.931 135.353 17.8758C135.129 18.1004 134.862 18.2787 134.569 18.4003C134.275 18.5219 133.961 18.5845 133.643 18.5845C133.325 18.5845 133.011 18.5219 132.717 18.4003C132.424 18.2787 132.157 18.1004 131.933 17.8758C131.595 17.5382 131.365 17.1083 131.272 16.6402C131.178 16.1722 131.225 15.6869 131.406 15.2455L128.144 11.9833L128.144 20.5685C128.381 20.6851 128.597 20.8394 128.784 21.0255C129.729 21.9698 129.729 23.5 128.784 24.4463C127.839 25.3905 126.308 25.3905 125.364 24.4463C124.419 23.5003 124.342 21.97 125.286 21.0255C125.52 20.7923 125.75 20.616 126 20.498V11.8333C125.75 11.7153 125.52 11.5403 125.286 11.3055C124.571 10.5905 124.437 9.54051 124.804 8.66151L121.246 5.08326L111.807 14.5308C111.014 15.325 111.019 16.612 111.812 17.4058L125.594 31.1843C126.387 31.9778 127.675 31.9778 128.469 31.1843L142.184 17.4698C142.978 16.6758 142.979 15.388 142.185 14.5945Z" fill="#F34F29"/>
<path d="M152.759 28.469L150.258 0.415222H177.742L175.238 28.4647L163.983 31.5847L152.759 28.469Z" fill="#E44D26"/>
<path d="M164 29.2L173.094 26.6785L175.234 2.70898H164V29.2Z" fill="#F16529"/>
<path d="M164 13.1138H159.447L159.133 9.59028H164V6.14978H155.372L155.455 7.07278L156.3 16.5545H164V13.1138ZM164 22.0495L163.985 22.0538L160.153 21.0188L159.908 18.275H156.454L156.936 23.6773L163.984 25.6338L164 25.6295V22.0495Z" fill="#EBEBEB"/>
<path d="M163.988 13.1138V16.5545H168.225L167.826 21.0168L163.988 22.0525V25.6323L171.042 23.6773L171.094 23.096L171.902 14.0378L171.986 13.1138H171.059H163.988ZM163.988 6.14978V9.59028H172.299L172.368 8.81728L172.525 7.07278L172.607 6.14978H163.988Z" fill="white"/>
<path d="M189.704 28.5308L187.19 0.338013H214.81L212.294 28.5265L200.983 31.6623L189.704 28.5308Z" fill="#1572B6"/>
<path d="M201 29.2655L210.14 26.7315L212.29 2.64301H201V29.2655Z" fill="#33A9DC"/>
<path d="M201 12.8573H205.576L205.892 9.31652H201V5.85876H209.671L209.588 6.78651L208.738 16.315H201V12.8573Z" fill="white"/>
<path d="M201.021 21.8372L201.006 21.8417L197.155 20.802L196.909 18.0443H193.438L193.922 23.4735L201.005 25.4393L201.021 25.4347V21.8372Z" fill="#EBEBEB"/>
<path d="M205.282 16.1688L204.865 20.7993L201.009 21.8403V25.4378L208.097 23.4733L208.149 22.889L208.751 16.1688H205.282Z" fill="white"/>
<path d="M201.012 5.85876V9.31652H192.66L192.591 8.53952L192.433 6.78651L192.35 5.85876H201.012ZM201 12.8578V16.3155H197.198L197.129 15.5385L196.971 13.7855L196.888 12.8578H201Z" fill="#EBEBEB"/>
<path d="M222.352 0.35199H253.648V31.6482H222.352V0.35199Z" fill="#F0DB4F"/>
<path d="M251.087 24.184C250.858 22.7563 249.927 21.557 247.169 20.4388C246.211 19.9985 245.143 19.6833 244.825 18.9573C244.712 18.5348 244.697 18.2968 244.768 18.041C244.973 17.211 245.964 16.9523 246.749 17.1903C247.255 17.3598 247.734 17.7495 248.023 18.3713C249.373 17.4968 249.37 17.5025 250.313 16.9015C249.968 16.3663 249.784 16.1193 249.558 15.8903C248.746 14.983 247.639 14.5158 245.869 14.5515L244.947 14.6708C244.063 14.894 243.221 15.3578 242.728 15.9795C241.246 17.6605 241.669 20.6025 243.471 21.8133C245.247 23.1463 247.856 23.4495 248.19 24.696C248.514 26.222 247.068 26.716 245.631 26.5405C244.572 26.3203 243.983 25.782 243.346 24.8033C242.174 25.4815 242.174 25.4815 240.969 26.1745C241.255 26.7993 241.555 27.082 242.034 27.6233C244.301 29.9228 249.974 29.8098 250.992 26.3293C251.033 26.2098 251.307 25.4128 251.087 24.184ZM239.366 14.7358H236.438L236.426 22.3038C236.426 23.9133 236.51 25.3888 236.248 25.841C235.82 26.7305 234.71 26.6203 234.204 26.4478C233.689 26.1948 233.428 25.835 233.124 25.3265C233.041 25.1805 232.979 25.0675 232.957 25.0588L230.577 26.5163C230.973 27.3285 231.556 28.0335 232.303 28.4915C233.419 29.161 234.918 29.3663 236.486 29.0063C237.506 28.709 238.387 28.0933 238.848 27.156C239.514 25.9273 239.371 24.44 239.365 22.795C239.38 20.1113 239.366 17.428 239.366 14.7358Z" fill="#323330"/>
<path d="M261.406 8.04527C258.649 12.008 258.992 17.1643 261.098 21.3753C261.148 21.4763 261.201 21.5755 261.253 21.6748L261.351 21.8645L261.413 21.9738L261.522 22.1703C261.588 22.2855 261.655 22.4003 261.723 22.515L261.838 22.704C261.914 22.8268 261.992 22.948 262.071 23.069L262.171 23.2225C262.281 23.3863 262.393 23.5498 262.509 23.7103L262.519 23.7228L262.576 23.7998C262.676 23.938 262.779 24.0745 262.884 24.2095L263 24.357C263.093 24.4743 263.188 24.5908 263.284 24.7068L263.393 24.8368C263.523 24.9899 263.655 25.1409 263.789 25.2898L263.798 25.298L263.813 25.315C263.945 25.4585 264.08 25.6001 264.216 25.7398L264.345 25.87C264.451 25.9765 264.558 26.0813 264.667 26.1855L264.799 26.3105C264.944 26.4473 265.09 26.5813 265.24 26.7123L265.247 26.7178L265.323 26.7833C265.455 26.8973 265.589 27.0105 265.724 27.1215L265.89 27.2538C266 27.3423 266.112 27.4293 266.224 27.5148L266.403 27.6505C266.527 27.7418 266.651 27.8315 266.777 27.9193L266.914 28.016L266.951 28.0428C267.071 28.125 267.193 28.2043 267.315 28.2835L267.473 28.3885C267.66 28.507 267.85 28.6243 268.043 28.7375L268.2 28.8263C268.341 28.9078 268.484 28.9878 268.628 29.066C268.706 29.108 268.786 29.1478 268.864 29.188C268.966 29.2413 269.067 29.2953 269.17 29.347L269.241 29.3813L269.366 29.4418C269.527 29.5183 269.688 29.5935 269.851 29.666L269.954 29.712C270.141 29.7939 270.33 29.8723 270.52 29.9473L270.657 30.0015C270.833 30.0693 271.012 30.1363 271.191 30.1993L271.258 30.2225C271.455 30.2913 271.653 30.355 271.853 30.4173L271.997 30.4603C272.201 30.5215 272.402 30.5948 272.612 30.6335C285.947 33.0653 289.82 22.6203 289.82 22.6203C286.567 26.8585 280.792 27.9765 275.321 26.7318C275.114 26.685 274.913 26.6203 274.71 26.5605L274.558 26.5143C274.361 26.4539 274.165 26.3901 273.97 26.323L273.889 26.2938C273.716 26.2323 273.543 26.1682 273.371 26.1015L273.225 26.0443C273.037 25.97 272.85 25.8925 272.666 25.8115L272.554 25.762C272.396 25.6905 272.238 25.6173 272.082 25.5423L271.945 25.4768C271.822 25.417 271.701 25.3535 271.58 25.291C271.499 25.2483 271.416 25.208 271.336 25.1635C271.189 25.0842 271.043 25.0023 270.898 24.918L270.751 24.8355C270.559 24.7222 270.369 24.6058 270.181 24.4863L270.027 24.3838C269.89 24.2961 269.755 24.2062 269.621 24.114L269.491 24.0223C269.362 23.9312 269.234 23.8388 269.107 23.745L268.937 23.6165C268.821 23.5279 268.706 23.4378 268.591 23.346L268.437 23.2223C268.292 23.1031 268.148 22.9821 268.006 22.859L267.959 22.8193C267.806 22.6842 267.655 22.547 267.506 22.4075L267.378 22.2848C267.268 22.1798 267.159 22.074 267.053 21.9655L266.925 21.8383C266.79 21.6996 266.657 21.5588 266.526 21.4158L266.506 21.3948C266.368 21.2436 266.233 21.0899 266.101 20.9338L265.995 20.8078C265.896 20.6889 265.799 20.5687 265.703 20.4473L265.596 20.3143C265.482 20.1664 265.37 20.0169 265.259 19.8658C262.222 15.7223 261.13 10.0078 263.558 5.31477L261.406 8.04527ZM269.965 4.70627C267.971 7.57577 268.08 11.4173 269.635 14.452C269.896 14.9622 270.19 15.4541 270.517 15.9243C270.816 16.3525 271.147 16.862 271.544 17.206C271.689 17.3648 271.838 17.5197 271.991 17.6705L272.109 17.7868C272.258 17.9319 272.411 18.0735 272.566 18.2113L272.585 18.2273L272.589 18.2318C272.763 18.3835 272.941 18.5308 273.123 18.6735L273.244 18.768C273.427 18.9087 273.613 19.0446 273.802 19.1758L273.819 19.188C273.903 19.246 273.988 19.3 274.073 19.356L274.194 19.4358C274.33 19.523 274.468 19.608 274.608 19.6895L274.667 19.7235C274.787 19.793 274.91 19.8615 275.032 19.928L275.163 19.9958C275.247 20.04 275.332 20.0853 275.418 20.1283L275.457 20.1458C275.633 20.2323 275.81 20.3158 275.991 20.3945L276.109 20.443C276.254 20.5045 276.4 20.5645 276.547 20.6205L276.734 20.6893C276.867 20.7388 277.001 20.7838 277.136 20.829L277.318 20.8873C277.51 20.9468 277.699 21.022 277.899 21.0553C288.195 22.761 290.572 14.8338 290.572 14.8338C288.429 17.9195 284.28 19.392 279.852 18.2425C279.656 18.191 279.462 18.1349 279.268 18.074L279.093 18.0173C278.956 17.973 278.821 17.9262 278.685 17.8768L278.501 17.8083C278.354 17.7517 278.208 17.6927 278.063 17.6313L277.944 17.5813C277.763 17.5025 277.584 17.4192 277.407 17.3315C277.316 17.2873 277.227 17.2405 277.138 17.1945L276.982 17.1145C276.868 17.0524 276.754 16.9882 276.642 16.922L276.56 16.8758C276.421 16.7946 276.283 16.7105 276.147 16.6238L276.023 16.5408C275.933 16.4828 275.844 16.4239 275.756 16.364C275.567 16.2328 275.381 16.0971 275.199 15.957L275.074 15.8583C273.136 14.3283 271.599 12.2368 270.869 9.86552C270.103 7.40652 270.268 4.64602 271.595 2.40552L269.965 4.70627ZM277.164 2.21177C275.989 3.94177 275.873 6.09027 276.689 8.00077C277.549 10.029 279.312 11.6198 281.369 12.3745C281.454 12.4058 281.539 12.4338 281.625 12.463L281.737 12.4988C281.859 12.5368 281.979 12.581 282.104 12.6048C287.789 13.7033 289.331 9.68752 289.741 9.09627C288.391 11.041 286.121 11.5078 283.336 10.8318C283.116 10.7785 282.874 10.699 282.662 10.6238C282.389 10.527 282.122 10.4161 281.862 10.2915C281.367 10.0533 280.897 9.76654 280.459 9.43552C277.966 7.54427 276.418 3.93702 278.044 0.999268" fill="#0868AC"/>
<path d="M324.193 7.5835L313.169 1.18225C312.473 0.786254 311.568 0.786254 310.867 1.18225L299.725 7.5835C299.008 7.99625 298.5 8.77201 298.5 9.60176V22.3873C298.5 23.217 299.021 23.993 299.739 24.408L302.682 26.08C304.089 26.773 304.587 26.773 305.227 26.773C307.31 26.773 308.5 25.5133 308.5 23.316V10.6935C308.5 10.5153 308.407 10.25 308.232 10.25H306.826C306.648 10.25 306.25 10.5153 306.25 10.6933V23.3158C306.25 24.2898 305.369 25.259 303.722 24.4358L300.681 22.6825C300.575 22.625 300.5 22.5093 300.5 22.3873V9.60176C300.5 9.48126 300.639 9.36026 300.746 9.2985L311.851 2.90825C311.955 2.8495 312.108 2.8495 312.211 2.90825L323.182 9.297C323.287 9.36025 323.25 9.47751 323.25 9.60176V22.3873C323.25 22.5093 323.295 22.628 323.192 22.6868L312.17 29.0808C312.076 29.1375 311.958 29.1375 311.855 29.0808L309.028 27.3935C308.943 27.344 308.842 27.3263 308.76 27.372C307.974 27.8178 307.828 27.877 307.091 28.1328C306.909 28.196 306.641 28.3058 307.193 28.615L310.893 30.8035C311.246 31.0075 311.647 31.1149 312.055 31.115C312.465 31.115 312.867 31.0085 313.221 30.8035L324.192 24.408C324.91 23.99 325.25 23.217 325.25 22.3873V9.60176C325.25 8.77201 324.91 7.99825 324.193 7.5835ZM315.478 20.3613C312.546 20.3613 311.9 19.5525 311.685 18.0948C311.66 17.9378 311.527 17.75 311.367 17.75H309.934C309.757 17.75 309.615 17.965 309.615 18.1415C309.615 20.008 310.629 22.2695 315.478 22.2695C318.988 22.2695 321 20.9058 321 18.4923C321 16.0993 319.383 15.4713 315.979 15.0208C312.539 14.566 312.189 14.3363 312.189 13.5303C312.189 12.8658 312.485 11.9795 315.033 11.9795C317.309 11.9795 318.148 12.468 318.493 14.0023C318.523 14.1465 318.654 14.25 318.803 14.25H320.242C320.33 14.25 320.415 14.2143 320.477 14.151C320.537 14.083 320.568 13.9978 320.56 13.9063C320.338 11.2643 318.582 10.033 315.032 10.033C311.875 10.033 309.991 11.3665 309.991 13.6018C309.991 16.0263 311.865 16.6963 314.896 16.996C318.523 17.3515 318.805 17.8815 318.805 18.5948C318.805 19.8335 317.81 20.3613 315.478 20.3613Z" fill="#83CD29"/>
<path d="M364.667 24.61C363.527 24.9 362.822 24.6225 362.19 23.6725C360.77 21.545 359.202 19.515 357.69 17.4475C357.495 17.18 357.292 16.9175 357.04 16.585C355.25 19 353.462 21.3 351.785 23.6925C351.185 24.5475 350.555 24.92 349.435 24.6175L356.165 15.585L349.9 7.42748C350.977 7.21748 351.722 7.32498 352.382 8.28998C353.84 10.42 355.447 12.4475 357.05 14.5925C358.662 12.455 360.25 10.425 361.75 8.31498C362.352 7.45998 363 7.13498 364.082 7.44998C363.262 8.53748 362.46 9.60748 361.652 10.67C360.562 12.1025 359.492 13.5525 358.362 14.955C357.96 15.455 358.025 15.78 358.385 16.2525C360.475 19 362.54 21.775 364.667 24.61ZM333.333 15.435C333.513 14.5325 333.633 13.6125 333.883 12.7275C335.383 7.36998 341.532 5.14248 345.757 8.46248C348.232 10.41 348.847 13.155 348.725 16.25H334.775C334.565 21.8025 338.562 25.155 343.657 23.445C345.445 22.845 346.497 21.445 347.025 19.695C347.292 18.8175 347.735 18.68 348.56 18.93C348.137 21.12 347.18 22.95 345.18 24.095C342.18 25.81 337.897 25.255 335.645 22.8725C334.315 21.4725 333.75 19.73 333.5 17.8475C333.463 17.5475 333.385 17.2525 333.325 16.955C333.33 16.4483 333.333 15.9416 333.333 15.435ZM334.8 15.0625H347.407C347.325 11.0475 344.825 8.19498 341.407 8.16998C337.658 8.13998 334.963 10.925 334.8 15.0625Z" fill="black"/>
<path fill-rule="evenodd" clip-rule="evenodd" d="M392.01 10.703C392.411 11.8638 392.7 13.0488 392.795 14.277C392.913 15.8008 392.859 17.3138 392.538 18.8125C392.529 18.8538 392.51 18.8925 392.497 18.9325C392.396 18.9328 392.293 18.9203 392.194 18.9355C391.362 19.0663 390.531 19.2018 389.699 19.3365C388.84 19.4758 387.979 19.6095 387.121 19.7583C386.817 19.8108 386.441 19.748 386.318 20.1685C386.315 20.18 386.28 20.182 386.259 20.1885L386.301 17.6758L386.258 11.6128L386.659 11.544C387.314 11.4368 387.969 11.328 388.625 11.2238C389.407 11.0995 390.19 10.9788 390.972 10.8575C391.318 10.8038 391.664 10.7545 392.01 10.703Z" fill="#439934"/>
<path fill-rule="evenodd" clip-rule="evenodd" d="M385.432 27.5135C385.01 27.1502 384.573 26.803 384.168 26.421C381.988 24.3655 380.394 21.9462 379.609 19.0295C379.393 18.2267 379.249 17.411 379.203 16.5815C379.17 16.001 379.123 15.4152 379.164 14.8377C379.273 13.3017 379.495 11.7805 379.946 10.301L379.971 10.2665C380.014 10.3247 380.077 10.3762 380.1 10.442C380.539 11.737 380.976 13.033 381.41 14.3297C382.775 18.4047 384.137 22.4807 385.504 26.5547C385.531 26.6342 385.6 26.6995 385.65 26.7712L385.432 27.5135Z" fill="#45A538"/>
<path fill-rule="evenodd" clip-rule="evenodd" d="M392.01 10.703C391.664 10.7545 391.318 10.8038 390.972 10.857C390.189 10.9783 389.407 11.099 388.624 11.2233C387.969 11.3275 387.314 11.4363 386.659 11.5435L386.258 11.6123L386.255 11.351C386.242 11.1363 386.219 10.9218 386.217 10.707C386.199 9.33752 386.189 7.96802 386.172 6.59852C386.161 5.74127 386.146 4.88427 386.128 4.02727C386.117 3.49477 386.106 2.96202 386.082 2.43027C386.069 2.14452 386.023 1.86027 386.004 1.57452C385.993 1.41027 386.008 1.24477 386.011 1.07977C386.215 1.47552 386.415 1.87427 386.625 2.26702C386.957 2.88802 387.486 3.34552 387.961 3.84477C389.842 5.81777 391.177 8.11177 392.01 10.703Z" fill="#46A037"/>
<path fill-rule="evenodd" clip-rule="evenodd" d="M386.259 20.1882C386.279 20.1817 386.315 20.1797 386.318 20.1682C386.441 19.7477 386.817 19.8105 387.121 19.758C387.979 19.6095 388.839 19.4755 389.699 19.3362C390.53 19.2015 391.362 19.066 392.194 18.9352C392.293 18.9197 392.396 18.9325 392.496 18.9322C392.341 19.4872 392.218 20.0542 392.021 20.594C391.797 21.2062 391.526 21.8037 391.238 22.3895C390.807 23.2632 390.274 24.0825 389.65 24.8302C389.17 25.4072 388.636 25.9405 388.1 26.4672C387.803 26.7585 387.454 26.9957 387.129 27.2575L387.045 27.2L386.741 26.9405L386.427 26.2522C386.213 25.4494 386.096 24.6236 386.079 23.7927L386.084 23.6525L386.127 23.046C386.142 22.839 386.161 22.6322 386.169 22.4247C386.202 21.6792 386.23 20.9337 386.259 20.1882Z" fill="#409433"/>
<path fill-rule="evenodd" clip-rule="evenodd" d="M386.259 20.1883C386.23 20.9338 386.202 21.6793 386.17 22.425C386.161 22.6325 386.142 22.8393 386.128 23.0463L385.936 23.1185C385.512 21.868 385.087 20.6308 384.671 19.3903C383.983 17.338 383.304 15.2825 382.618 13.2298C382.063 11.5729 381.505 9.91731 380.943 8.26303C380.916 8.18553 380.841 8.12503 380.788 8.05653L382.012 5.80603C382.054 5.87903 382.11 5.94728 382.137 6.02578C382.703 7.70131 383.267 9.37781 383.828 11.0553C384.557 13.2378 385.282 15.422 386.01 17.6048C386.039 17.692 386.087 17.7725 386.133 17.8703L386.301 17.6753L386.259 20.1883Z" fill="#4FAA41"/>
<path fill-rule="evenodd" clip-rule="evenodd" d="M380.789 8.05676C380.841 8.12526 380.916 8.18576 380.943 8.26326C381.505 9.91754 382.064 11.5731 382.618 13.23C383.304 15.2828 383.984 17.3383 384.671 19.3905C385.087 20.6308 385.512 21.8683 385.937 23.1188L386.128 23.0465L386.085 23.653L386.046 23.7928C385.98 24.4568 385.924 25.1223 385.843 25.7848C385.802 26.1168 385.716 26.4428 385.65 26.7715C385.6 26.6998 385.531 26.6345 385.504 26.555C384.137 22.4808 382.775 18.405 381.41 14.33C380.976 13.0332 380.539 11.7373 380.1 10.4423C380.077 10.3765 380.015 10.325 379.971 10.2668L380.789 8.05676Z" fill="#4AA73C"/>
<path fill-rule="evenodd" clip-rule="evenodd" d="M386.3 17.6755L386.133 17.8705C386.087 17.7728 386.039 17.692 386.01 17.605C385.282 15.4223 384.557 13.238 383.828 11.0555C383.267 9.37803 382.703 7.70153 382.136 6.026C382.11 5.9475 382.054 5.879 382.012 5.80625L383.526 3.815C383.574 3.87875 383.642 3.9355 383.666 4.00725C384.087 5.2375 384.503 6.46925 384.917 7.70175C385.304 8.85275 385.685 10.0055 386.076 11.155C386.102 11.232 386.194 11.2865 386.255 11.3515L386.258 11.6128C386.272 13.6333 386.286 15.6545 386.3 17.6755Z" fill="#57AE47"/>
<path fill-rule="evenodd" clip-rule="evenodd" d="M386.255 11.351C386.194 11.286 386.103 11.2315 386.077 11.1545C385.686 10.005 385.305 8.85224 384.918 7.70124C384.504 6.46874 384.087 5.23724 383.667 4.00674C383.642 3.93499 383.574 3.87824 383.527 3.81449C384.019 3.33249 384.496 2.83324 385.008 2.37349C385.463 1.96499 385.829 1.52699 385.846 0.881491C385.847 0.854741 385.861 0.827991 385.882 0.752991L386.012 1.07949C386.009 1.24474 385.994 1.40999 386.005 1.57424C386.023 1.85999 386.069 2.14424 386.082 2.42999C386.106 2.96174 386.118 3.49449 386.129 4.02699C386.146 4.88399 386.162 5.74099 386.172 6.59824C386.189 7.96774 386.2 9.33724 386.217 10.7067C386.219 10.922 386.242 11.1362 386.255 11.351Z" fill="#60B24F"/>
<path fill-rule="evenodd" clip-rule="evenodd" d="M385.649 26.7712C385.715 26.4425 385.802 26.1162 385.842 25.7845C385.924 25.1222 385.979 24.4565 386.046 23.7925L386.062 23.79L386.079 23.7927C386.096 24.6236 386.213 25.4494 386.427 26.2522C386.383 26.3102 386.321 26.362 386.298 26.4275C386.116 26.94 385.945 27.4565 385.762 27.969C385.737 28.039 385.668 28.0935 385.619 28.155L385.432 27.5135L385.649 26.7712Z" fill="#A9AA88"/>
<path fill-rule="evenodd" clip-rule="evenodd" d="M385.619 28.1553C385.668 28.0938 385.738 28.0393 385.762 27.9693C385.945 27.4568 386.117 26.9405 386.298 26.4278C386.322 26.3623 386.383 26.3105 386.428 26.2525L386.742 26.941C386.68 27.029 386.594 27.1083 386.56 27.2063L385.958 28.971C385.934 29.0418 385.849 29.0918 385.793 29.1515L385.619 28.1553Z" fill="#B6B598"/>
<path fill-rule="evenodd" clip-rule="evenodd" d="M385.793 29.1512C385.849 29.0917 385.934 29.0415 385.958 28.9707L386.559 27.206C386.594 27.1082 386.68 27.0287 386.742 26.9407L387.045 27.2C386.898 27.345 386.817 27.5125 386.866 27.7242L386.774 28.0262C386.732 28.078 386.671 28.123 386.65 28.1822C386.44 28.783 386.24 29.387 386.029 29.9877C386.002 30.064 385.928 30.1237 385.875 30.1907C385.848 29.844 385.82 29.498 385.793 29.1512Z" fill="#C2C1A7"/>
<path fill-rule="evenodd" clip-rule="evenodd" d="M385.876 30.1907C385.928 30.1235 386.002 30.0637 386.029 29.9877C386.24 29.3872 386.441 28.7832 386.65 28.1822C386.671 28.1232 386.732 28.078 386.774 28.0262L386.647 29.4125C386.613 29.4517 386.563 29.486 386.547 29.5317C386.403 29.9352 386.268 30.3417 386.124 30.7452C386.094 30.8285 386.037 30.902 385.992 30.9797C385.953 30.928 385.882 30.878 385.879 30.824C385.866 30.6137 385.875 30.402 385.876 30.1907Z" fill="#CECDB7"/>
<path fill-rule="evenodd" clip-rule="evenodd" d="M385.992 30.9797C386.037 30.9017 386.094 30.8282 386.124 30.7452C386.268 30.342 386.403 29.9355 386.547 29.5317C386.563 29.486 386.613 29.452 386.646 29.4125L386.649 30.3225L386.345 31.1035L385.992 30.9797Z" fill="#DBDAC7"/>
<path fill-rule="evenodd" clip-rule="evenodd" d="M386.345 31.1038L386.649 30.3228L386.712 31.2468L386.345 31.1038Z" fill="#EBE9DC"/>
<path fill-rule="evenodd" clip-rule="evenodd" d="M386.866 27.7245C386.817 27.5128 386.898 27.345 387.045 27.2003L387.129 27.2578L386.866 27.7245Z" fill="#CECDB7"/>
<path fill-rule="evenodd" clip-rule="evenodd" d="M386.079 23.793L386.062 23.7903L386.046 23.7928L386.085 23.653L386.079 23.793Z" fill="#4FAA41"/>
<defs>
<clipPath id="clip0_9_45">
<rect width="32" height="32" fill="white" transform="translate(74)"/>
</clipPath>
</defs>
</svg>
