<svg width="372" height="24" viewBox="0 0 372 24" fill="none" xmlns="http://www.w3.org/2000/svg">
<path d="M23.625 0.306946L11.0625 2.15082V11.4941L23.625 11.394V0.306946ZM0.308817 12.5079L0.30938 20.4587L9.83269 21.768L9.82519 12.5698L0.308817 12.5079ZM10.9626 12.6354L10.9802 21.9101L23.6132 23.6931L23.6162 12.6563L10.9626 12.6354ZM0.30188 3.6182L0.310692 11.565L9.83401 11.5108L9.82969 2.32032L0.30188 3.6182Z" fill="#00ADEF"/>
<path d="M39.9626 20.6693C38.5649 20.2037 36.7601 19.6165 36.727 19.6165C36.702 19.6165 36.673 19.6686 36.6267 19.7971C36.5908 19.8965 36.5615 19.985 36.5615 19.9938C36.5615 20.0026 36.5496 20.0261 36.5351 20.046C36.5049 20.0875 36.609 20.1396 35.0347 19.2944C33.8653 18.6666 33.8348 18.6515 33.7978 18.6824C33.7818 18.6956 33.6461 18.8784 33.4962 19.0886L33.2236 19.4707L33.1945 19.401C33.1641 19.3281 32.6536 17.8766 32.1913 16.5481C32.0426 16.1211 31.9125 15.7718 31.9021 15.7718C31.8742 15.7718 31.5235 16.0151 30.9176 16.455C30.6223 16.6694 30.3776 16.8419 30.3738 16.8384C30.3701 16.8349 30.5396 16.4438 30.7504 15.9692C31.4241 14.4528 31.4731 14.3353 31.4318 14.3353C31.4251 14.3353 31.0934 14.5024 30.6948 14.7066C30.2961 14.9109 29.9699 15.073 29.9699 15.0668C29.9699 15.0607 30.0884 14.6916 30.2332 14.2466C30.378 13.8016 30.4964 13.425 30.4964 13.4097C30.4964 13.3752 30.5153 13.3695 29.9394 13.5775C29.6852 13.6694 29.4702 13.742 29.4617 13.7389C29.4456 13.733 29.6874 13.4664 30.6833 12.3921C31.2378 11.7938 31.2982 11.721 31.5236 11.3778C32.1043 10.4938 32.5813 9.7497 32.5813 9.72777C32.5813 9.71427 32.5609 9.7084 32.5339 9.71416C32.5079 9.71972 32.2838 9.76878 32.0359 9.8232C31.7881 9.87762 31.5718 9.91934 31.5554 9.91591C31.539 9.91246 32.0924 9.55626 32.7852 9.1243C35.3797 7.50671 35.9038 7.18751 36.044 7.13962C36.097 7.1215 36.1403 7.10182 36.1403 7.09587C36.1403 7.08993 35.92 7.09195 35.6507 7.10034C35.3814 7.10875 35.1658 7.11123 35.1716 7.10585C35.184 7.09435 37.5894 5.22512 38.5937 4.44656C39.4024 3.8197 40.1102 3.28085 40.2507 3.18518C40.3335 3.12878 40.3688 3.11808 40.4718 3.1181C40.5392 3.11812 41.2293 3.16078 42.0054 3.2129C45.5798 3.45298 46.8523 3.54349 46.8932 3.56057C46.9176 3.5707 47.3607 4.10412 47.8781 4.74589L48.8187 5.91276L49.6871 6.31309C50.1647 6.53328 50.5569 6.71487 50.5587 6.71663C50.5587 6.71663 50.6286 6.83767 50.5765 6.77392L50.636 6.84194C50.7507 6.9732 52.593 9.43974 52.602 9.47402C52.6099 9.5044 52.3702 11.5714 52.3454 11.6859C52.3368 11.7261 51.1149 12.9114 51.1149 13.019C51.1111 13.0152 51.1407 12.5469 51.1806 11.9784C51.2204 11.4099 51.318 10.8445 51.2663 10.7509L51.1593 10.5571L51.068 10.5448C50.9676 10.5314 49.155 10.4157 46.7542 10.2696C45.9029 10.2177 45.1282 10.1697 45.0326 10.1629L44.8589 10.1504V10.2162C44.8589 10.2855 45.0616 12.0621 45.3444 14.4715L45.5129 15.907L45.4392 16.0137C45.3986 16.0723 45.2006 16.3484 44.9992 16.6272L44.633 17.1341L44.6865 17.2302L44.74 17.3262L44.273 17.908C44.0161 18.2279 43.8059 18.5059 43.8059 18.5258C43.8059 18.5457 43.8506 18.6675 43.9052 18.7966L44.0045 19.0313L43.9347 19.0862C43.8962 19.1164 43.5886 19.3229 43.251 19.545L42.6371 19.9488L42.6426 20.0203C42.6455 20.0596 42.677 20.2091 42.7125 20.3526C42.7479 20.496 42.7735 20.6168 42.7693 20.621C42.7611 20.6294 41.9864 20.5262 41.1759 20.409C40.8934 20.3681 40.6505 20.3347 40.636 20.3347C40.6159 20.3347 40.6124 20.3982 40.6209 20.6093C40.6272 20.7655 40.6239 20.883 40.6132 20.8818C40.6028 20.8807 40.31 20.785 39.9626 20.6693L39.9626 20.6693Z" fill="#297BE5"/>
<path d="M47.9896 9.13104L52.6912 9.46118L51.1904 10.5721L47.9896 9.13104Z" fill="url(#paint0_linear_9_45)"/>
<path d="M42.9897 10.0258L45.5646 15.9427L41.2881 9.91577L42.9897 10.0258Z" fill="url(#paint1_linear_9_45)"/>
<path d="M44.8698 9.99449L45.5707 15.9607L42.8365 9.82568L44.8698 9.99449Z" fill="url(#paint2_linear_9_45)"/>
<path d="M43.7389 7.2754L48.3905 9.28092L45.6994 6.67029L43.7389 7.2754Z" fill="url(#paint3_linear_9_45)"/>
<path d="M51.191 10.5682L48.3752 9.24615L39.9107 9.85884L51.191 10.5682Z" fill="url(#paint4_linear_9_45)"/>
<path d="M31.3182 10.0036L35.9769 7.11659L48.0781 6.32599L31.3182 10.0036Z" fill="url(#paint5_linear_9_45)"/>
<path d="M44.687 4.84497C44.687 4.84497 35.6344 7.02178 35.0779 7.15011L35.5416 7.08278L35.0833 7.14976L45.7133 6.68448L45.1458 5.688H45.1459L44.687 4.84497Z" fill="url(#paint6_linear_9_45)"/>
<path d="M50.6479 6.71565L48.3905 9.28089L48.8758 5.89844L50.6479 6.71565Z" fill="url(#paint7_linear_9_45)"/>
<path d="M52.7 9.46248L50.625 6.6969L48.3769 9.24923L52.7 9.46248Z" fill="url(#paint8_linear_9_45)"/>
<path d="M51.0099 13.1072L51.1904 10.5721L52.6912 9.46118L52.4129 11.7423L51.0099 13.1072" fill="url(#paint9_linear_9_45)"/>
<path d="M48.8758 5.89849L46.9611 3.53229L44.5799 4.86528L48.8758 5.89849Z" fill="url(#paint10_linear_9_45)"/>
<path d="M40.3338 3.08075L44.6785 4.84274L46.9729 3.53427L40.3338 3.08075Z" fill="url(#paint11_linear_9_45)"/>
<path d="M35.078 7.15006L40.3338 3.08075L44.7083 4.85419L35.078 7.15006Z" fill="url(#paint12_linear_9_45)"/>
<path d="M48.8759 5.89848L45.6827 6.70461L44.6757 4.84778L48.8759 5.89848Z" fill="url(#paint13_linear_9_45)"/>
<path d="M48.8759 5.89844L45.5222 6.70964L48.3906 9.28089L48.8759 5.89844Z" fill="url(#paint14_linear_9_45)"/>
<path d="M43.9916 9.014L48.3906 9.28095L43.7326 7.25037L43.9916 9.014Z" fill="url(#paint15_linear_9_45)"/>
<path d="M44.0173 9.0121L31.2655 11.7159L43.7489 7.24329L44.0173 9.0121Z" fill="url(#paint16_linear_9_45)"/>
<path d="M40.0125 9.85994L44.0375 9.00781L48.4751 9.25989L40.0125 9.85994Z" fill="url(#paint17_linear_9_45)"/>
<path d="M43.7462 7.25171L32.5711 9.72466L31.2655 11.7159L43.7462 7.25171Z" fill="url(#paint18_linear_9_45)"/>
<path d="M39.9984 9.8609L31.2655 11.7159L29.3 13.8343L39.9984 9.8609Z" fill="url(#paint19_linear_9_45)"/>
<path d="M29.8905 15.1503L39.9984 9.8609L30.4826 13.3951L29.8905 15.1503Z" fill="url(#paint20_linear_9_45)"/>
<path d="M30.2713 16.9502L31.4449 14.3369L39.9984 9.8609L30.2713 16.9502Z" fill="url(#paint21_linear_9_45)"/>
<path d="M33.2007 19.5456L31.8676 15.7152L39.9984 9.8609L33.2007 19.5456Z" fill="url(#paint22_linear_9_45)"/>
<path d="M45.5621 15.9328L44.6858 17.144L39.9984 9.8609L45.5621 15.9328Z" fill="url(#paint23_linear_9_45)"/>
<path d="M43.833 18.5197L39.9984 9.8609L44.8045 17.3284L43.833 18.5197Z" fill="url(#paint24_linear_9_45)"/>
<path d="M36.5436 20.1353L33.8159 18.669L39.9984 9.8609L36.5436 20.1353Z" fill="url(#paint25_linear_9_45)"/>
<path d="M44.0717 19.0587L39.9984 9.8609L42.6493 19.982L44.0717 19.0587Z" fill="url(#paint26_linear_9_45)"/>
<path d="M39.9984 9.8609L40.6774 20.9192L36.715 19.6255L39.9984 9.8609Z" fill="url(#paint27_linear_9_45)"/>
<path d="M39.9984 9.8609L40.6407 20.3556L42.8402 20.668L39.9984 9.8609Z" fill="url(#paint28_linear_9_45)"/>
<path d="M41.8705 5.91005C44.0715 4.90013 46.0283 7.996 47.1934 6.73822C46.6855 7.54998 45.5031 7.62381 44.6788 7.62661C44.6788 7.62661 43.4139 7.59649 43.5796 6.53494C43.3062 6.08347 42.4406 6.09247 41.8705 5.91005V5.91005Z" fill="black"/>
<path d="M43.9333 6.22565C43.8473 6.28761 43.7772 6.36912 43.7288 6.46346C43.6803 6.5578 43.655 6.66229 43.6548 6.76833C43.6548 6.85633 43.6722 6.94347 43.7058 7.02478C43.7395 7.10608 43.7889 7.17996 43.8511 7.24219C43.9133 7.30442 43.9872 7.35378 44.0685 7.38745C44.1498 7.42113 44.237 7.43846 44.325 7.43845C44.5027 7.43842 44.6731 7.3678 44.7987 7.24213C44.9244 7.11646 44.9949 6.94603 44.9949 6.76833C44.9947 6.71437 44.988 6.66063 44.9749 6.60829C44.9361 6.73472 44.8664 6.84374 44.7751 6.92077C44.6838 6.9978 44.5754 7.03917 44.4642 7.03934C44.3195 7.03934 44.1806 6.96955 44.0783 6.84531C43.9759 6.72108 43.9184 6.55258 43.9184 6.37687C43.9186 6.32593 43.9236 6.27519 43.9333 6.22565V6.22565Z" fill="white"/>
<path d="M49.8454 7.38245C49.8454 7.38245 49.0836 7.57289 49.1788 8.00138C49.1788 8.00138 49.4883 7.97758 49.8454 7.38245Z" fill="black"/>
<path d="M41.3842 9.95132L45.5674 15.9455L39.9926 9.86243L41.3842 9.95132Z" fill="url(#paint29_linear_9_45)"/>
<g clip-path="url(#clip0_9_45)">
<path d="M66.5312 24.1875C68.7625 24.1875 70.5625 22.3875 70.5625 20.1562V16.125H66.5312C64.3 16.125 62.5 17.925 62.5 20.1562C62.5 22.3875 64.3 24.1875 66.5312 24.1875Z" fill="#0ACF83"/>
<path d="M62.5 12.0938C62.5 9.8625 64.3 8.0625 66.5312 8.0625H70.5625V16.125H66.5312C64.3 16.125 62.5 14.325 62.5 12.0938Z" fill="#A259FF"/>
<path d="M62.5 4.03125C62.5 1.8 64.3 0 66.5312 0H70.5625V8.0625H66.5312C64.3 8.0625 62.5 6.2625 62.5 4.03125Z" fill="#F24E1E"/>
<path d="M70.5625 0H74.5938C76.825 0 78.625 1.8 78.625 4.03125C78.625 6.2625 76.825 8.0625 74.5938 8.0625H70.5625V0Z" fill="#FF7262"/>
<path d="M78.625 12.0938C78.625 14.325 76.825 16.125 74.5938 16.125C72.3625 16.125 70.5625 14.325 70.5625 12.0938C70.5625 9.8625 72.3625 8.0625 74.5938 8.0625C76.825 8.0625 78.625 9.8625 78.625 12.0938Z" fill="#1ABCFE"/>
</g>
<path d="M110.389 10.9459L100.055 0.611993C99.4599 0.0168682 98.4947 0.0168682 97.899 0.611993L95.7534 2.75812L98.4756 5.48024C99.1084 5.26668 99.8336 5.40993 100.338 5.91412C100.578 6.15461 100.746 6.45787 100.822 6.78922C100.898 7.12056 100.879 7.46662 100.768 7.78781L103.391 10.4117C104.026 10.1929 104.759 10.3342 105.265 10.842C105.974 11.5502 105.974 12.6982 105.265 13.4068C105.097 13.5753 104.897 13.709 104.677 13.8002C104.457 13.8914 104.221 13.9383 103.982 13.9383C103.744 13.9383 103.508 13.8914 103.288 13.8002C103.068 13.709 102.868 13.5753 102.7 13.4068C102.447 13.1536 102.274 12.8312 102.204 12.4802C102.134 12.1291 102.169 11.7652 102.305 11.4341L99.8584 8.98743L99.858 15.4264C100.036 15.5138 100.198 15.6295 100.338 15.7691C101.046 16.4773 101.046 17.625 100.338 18.3347C99.6293 19.0429 98.4808 19.0429 97.773 18.3347C97.0646 17.6252 97.0065 16.4775 97.7147 15.7691C97.8898 15.5942 98.0625 15.462 98.25 15.3735V8.87493C98.0625 8.78643 97.89 8.65518 97.7145 8.47912C97.1781 7.94287 97.0778 7.15537 97.353 6.49612L94.6843 3.81243L87.6054 10.8981C87.0101 11.4937 87.0139 12.459 87.6092 13.0543L97.9453 23.3882C98.5403 23.9833 99.5063 23.9833 100.102 23.3882L110.388 13.1023C110.984 12.5068 110.984 11.541 110.389 10.9459V10.9459Z" fill="#F34F29"/>
<path d="M119.569 21.3518L117.693 0.311462H138.306L136.428 21.3486L127.987 23.6886L119.569 21.3518Z" fill="#E44D26"/>
<path d="M128 21.9L134.821 20.0089L136.426 2.03174H128V21.9Z" fill="#F16529"/>
<path d="M128 9.83531H124.585L124.349 7.19268H128V4.6123H121.529L121.591 5.30455L122.225 12.4159H128V9.83531ZM128 16.5371L127.989 16.5403L125.115 15.7641L124.931 13.7062H122.341L122.702 17.7579L127.988 19.2253L128 19.2221V16.5371Z" fill="#EBEBEB"/>
<path d="M127.991 9.83531V12.4159H131.169L130.869 15.7626L127.991 16.5394V19.2242L133.281 17.7579L133.32 17.322L133.926 10.5283L133.989 9.83531H133.294H127.991ZM127.991 4.6123V7.19268H134.224L134.276 6.61293L134.394 5.30455L134.455 4.6123H127.991Z" fill="white"/>
<path d="M148.528 21.398L146.643 0.253479H167.357L165.47 21.3949L156.987 23.7467L148.528 21.398V21.398Z" fill="#1572B6"/>
<path d="M157 21.9491L163.855 20.0486L165.468 1.98224H157V21.9491Z" fill="#33A9DC"/>
<path d="M157 9.64292H160.432L160.669 6.98736H157V4.39404H163.503L163.441 5.08986L162.803 12.2362H157V9.64292Z" fill="white"/>
<path d="M157.016 16.378L157.004 16.3813L154.116 15.6015L153.931 13.5332H151.329L151.692 17.6051L157.004 19.0795L157.016 19.0761V16.378V16.378Z" fill="#EBEBEB"/>
<path d="M160.211 12.1266L159.899 15.5995L157.007 16.3802V19.0783L162.323 17.605L162.362 17.1668L162.813 12.1266H160.211Z" fill="white"/>
<path d="M157.009 4.39404V6.98736H150.745L150.693 6.40461L150.575 5.08986L150.513 4.39404H157.009V4.39404ZM157 9.64329V12.2366H154.149L154.097 11.6539L153.978 10.3391L153.916 9.64329H157V9.64329Z" fill="#EBEBEB"/>
<g clip-path="url(#clip1_9_45)">
<path d="M186.001 4.80035C182.801 4.80035 180.801 6.39973 180.001 9.59979C181.2 8.00023 182.601 7.40042 184.2 7.80035C185.114 8.02798 185.766 8.69023 186.489 9.4241C187.666 10.6179 189.027 12 192.001 12C195.201 12 197.2 10.4004 198.001 7.1996C196.801 8.8001 195.401 9.39992 193.801 8.99998C192.888 8.77217 192.236 8.1101 191.512 7.37623C190.336 6.18242 188.975 4.80035 186.001 4.80035V4.80035ZM180.001 12C176.801 12 174.801 13.5995 174.001 16.8004C175.2 15.1999 176.601 14.6 178.2 15C179.114 15.2278 179.766 15.8899 180.489 16.6237C181.666 17.8175 183.027 19.1996 186.001 19.1996C189.201 19.1996 191.2 17.6002 192.001 14.4002C190.801 15.9997 189.401 16.5995 187.801 16.1996C186.888 15.972 186.236 15.3097 185.512 14.5759C184.336 13.382 182.975 12 180.001 12Z" fill="#38B2AC"/>
</g>
<path d="M203.264 0.263977H226.736V23.7362H203.264V0.263977Z" fill="#F0DB4F"/>
<path d="M224.815 18.138C224.643 17.0672 223.945 16.1677 221.877 15.329C221.158 14.9989 220.357 14.7624 220.118 14.2179C220.034 13.901 220.022 13.7225 220.076 13.5307C220.23 12.9082 220.973 12.7142 221.562 12.8927C221.941 13.0198 222.3 13.3121 222.517 13.7784C223.53 13.1225 223.528 13.1269 224.235 12.6761C223.976 12.2747 223.838 12.0894 223.668 11.9177C223.059 11.2372 222.229 10.8868 220.902 10.9136L220.21 11.003C219.547 11.1705 218.916 11.5183 218.546 11.9846C217.434 13.2454 217.751 15.4519 219.103 16.3599C220.435 17.3597 222.392 17.5871 222.642 18.522C222.885 19.6665 221.801 20.037 220.723 19.9054C219.929 19.7402 219.487 19.3365 219.01 18.6024C218.131 19.1111 218.131 19.1111 217.227 19.6309C217.441 20.0994 217.666 20.3115 218.026 20.7174C219.726 22.442 223.981 22.3573 224.744 19.7469C224.775 19.6573 224.98 19.0595 224.815 18.138V18.138ZM216.024 11.0518H213.829L213.82 16.7278C213.82 17.9349 213.882 19.0415 213.686 19.3807C213.365 20.0479 212.532 19.9652 212.153 19.8358C211.767 19.646 211.571 19.3762 211.343 18.9949C211.281 18.8854 211.234 18.8006 211.218 18.794L209.433 19.8872C209.73 20.4964 210.167 21.0251 210.727 21.3686C211.564 21.8707 212.688 22.0247 213.864 21.7547C214.63 21.5317 215.29 21.0699 215.636 20.367C216.136 19.4454 216.028 18.33 216.024 17.0962C216.035 15.0834 216.024 13.071 216.024 11.0518V11.0518Z" fill="#323330"/>
<path d="M233.805 6.03395C231.737 9.00601 231.994 12.8732 233.574 16.0315C233.611 16.1072 233.651 16.1816 233.69 16.2561L233.763 16.3984L233.81 16.4803L233.892 16.6277C233.941 16.7141 233.991 16.8002 234.043 16.8863L234.129 17.028C234.186 17.1201 234.244 17.211 234.304 17.3018L234.378 17.4169C234.461 17.5397 234.545 17.6623 234.632 17.7827L234.639 17.7921L234.682 17.8498C234.757 17.9535 234.834 18.0559 234.913 18.1571L235 18.2678C235.07 18.3557 235.141 18.4431 235.213 18.5301L235.295 18.6276C235.392 18.7424 235.491 18.8557 235.592 18.9673L235.598 18.9735L235.61 18.9863C235.709 19.0939 235.81 19.2001 235.912 19.3048L236.009 19.4025C236.088 19.4824 236.169 19.5609 236.25 19.6391L236.349 19.7329C236.458 19.8354 236.568 19.936 236.68 20.0342L236.685 20.0383L236.743 20.0875C236.841 20.173 236.942 20.2579 237.043 20.3411L237.168 20.4403C237.25 20.5067 237.334 20.572 237.418 20.6361L237.552 20.7379C237.645 20.8063 237.739 20.8736 237.833 20.9395L237.936 21.012L237.964 21.0321C238.053 21.0938 238.145 21.1532 238.237 21.2126L238.355 21.2914C238.495 21.3803 238.638 21.4682 238.782 21.5531L238.9 21.6197C239.006 21.6808 239.113 21.7408 239.221 21.7995C239.279 21.831 239.339 21.8608 239.398 21.891C239.475 21.931 239.55 21.9715 239.628 22.0103L239.681 22.036L239.775 22.0813C239.895 22.1387 240.016 22.1951 240.139 22.2495L240.216 22.284C240.356 22.3454 240.497 22.4042 240.64 22.4605L240.743 22.5011C240.875 22.5519 241.009 22.6022 241.143 22.6494L241.194 22.6669C241.341 22.7185 241.49 22.7663 241.64 22.813L241.748 22.8452C241.901 22.8911 242.052 22.9461 242.209 22.9751C252.21 24.7989 255.115 16.9652 255.115 16.9652C252.675 20.1439 248.344 20.9824 244.241 20.0488C244.085 20.0138 243.935 19.9652 243.783 19.9204L243.669 19.8857C243.521 19.8404 243.374 19.7926 243.228 19.7423L243.167 19.7203C243.037 19.6743 242.907 19.6262 242.778 19.5761L242.669 19.5332C242.528 19.4775 242.388 19.4194 242.249 19.3586L242.166 19.3215C242.047 19.2679 241.929 19.213 241.811 19.1567L241.709 19.1076C241.617 19.0628 241.526 19.0151 241.435 18.9683C241.374 18.9362 241.312 18.906 241.252 18.8726C241.142 18.8131 241.032 18.7518 240.924 18.6885L240.813 18.6266C240.669 18.5417 240.527 18.4544 240.386 18.3647L240.27 18.2878C240.168 18.2221 240.066 18.1546 239.966 18.0855L239.868 18.0167C239.771 17.9484 239.676 17.8791 239.58 17.8088L239.453 17.7124C239.366 17.6459 239.279 17.5783 239.194 17.5095L239.078 17.4167C238.969 17.3274 238.861 17.2365 238.755 17.1443L238.719 17.1145C238.604 17.0132 238.491 16.9102 238.38 16.8056L238.284 16.7136C238.201 16.6348 238.12 16.5555 238.04 16.4741L237.944 16.3787C237.842 16.2747 237.742 16.1691 237.644 16.0618L237.63 16.0461C237.526 15.9327 237.425 15.8174 237.326 15.7003L237.246 15.6058C237.172 15.5167 237.099 15.4265 237.027 15.3355L236.947 15.2357C236.861 15.1248 236.777 15.0126 236.695 14.8993C234.417 11.7917 233.598 7.50583 235.419 3.98608L233.805 6.03395ZM240.224 3.5297C238.728 5.68183 238.81 8.56295 239.976 10.839C240.172 11.2216 240.393 11.5905 240.638 11.9432C240.862 12.2644 241.11 12.6465 241.408 12.9045C241.517 13.0236 241.628 13.1398 241.743 13.2529L241.832 13.3401C241.944 13.4489 242.058 13.5551 242.175 13.6585L242.189 13.6704L242.192 13.6738C242.323 13.7876 242.456 13.8981 242.592 14.0051L242.683 14.076C242.82 14.1815 242.96 14.2835 243.102 14.3818L243.114 14.391C243.177 14.4345 243.241 14.475 243.305 14.517L243.396 14.5768C243.498 14.6423 243.601 14.706 243.706 14.7671L243.75 14.7926C243.841 14.8448 243.932 14.8961 244.024 14.946L244.122 14.9968C244.186 15.03 244.249 15.064 244.314 15.0962L244.343 15.1093C244.475 15.1742 244.608 15.2368 244.743 15.2959L244.832 15.3323C244.941 15.3784 245.05 15.4234 245.16 15.4654L245.301 15.517C245.401 15.5541 245.501 15.5878 245.602 15.6218L245.738 15.6655C245.882 15.7101 246.024 15.7665 246.174 15.7915C253.896 17.0708 255.679 11.1253 255.679 11.1253C254.072 13.4396 250.96 14.544 247.639 13.6819C247.492 13.6433 247.346 13.6011 247.201 13.5555L247.07 13.513C246.967 13.4798 246.865 13.4446 246.764 13.4076L246.626 13.3562C246.516 13.3138 246.406 13.2695 246.297 13.2235L246.208 13.1859C246.072 13.1269 245.938 13.0644 245.805 12.9986C245.737 12.9654 245.67 12.9304 245.603 12.8959L245.487 12.8359C245.401 12.7893 245.315 12.7411 245.231 12.6915L245.17 12.6568C245.066 12.5959 244.962 12.5329 244.86 12.4678L244.767 12.4056C244.7 12.3621 244.633 12.3179 244.567 12.273C244.425 12.1746 244.286 12.0728 244.149 11.9678L244.055 11.8937C242.602 10.7462 241.449 9.17758 240.902 7.39914C240.328 5.55489 240.451 3.48451 241.446 1.80414L240.224 3.5297ZM245.623 1.65883C244.742 2.95633 244.655 4.5677 245.267 6.00058C245.912 7.52176 247.234 8.71483 248.777 9.28089C248.84 9.30433 248.904 9.32533 248.968 9.34726L249.053 9.37408C249.144 9.40258 249.234 9.43576 249.328 9.45358C253.592 10.2775 254.748 7.26564 255.056 6.8222C254.043 8.28076 252.341 8.63083 250.252 8.12383C250.087 8.08389 249.905 8.02426 249.746 7.96783C249.542 7.89526 249.342 7.81208 249.146 7.71864C248.775 7.53996 248.423 7.32491 248.094 7.07664C246.225 5.6582 245.064 2.95276 246.283 0.749451" fill="#0868AC"/>
<path d="M282.145 5.68763L273.876 0.88669C273.355 0.58969 272.676 0.58969 272.15 0.88669L263.794 5.68763C263.256 5.99719 262.875 6.579 262.875 7.20132V16.7904C262.875 17.4128 263.266 17.9948 263.804 18.306L266.012 19.56C267.067 20.0798 267.44 20.0798 267.92 20.0798C269.483 20.0798 270.375 19.1349 270.375 17.487V8.02013C270.375 7.88644 270.305 7.6875 270.174 7.6875H269.12C268.986 7.6875 268.688 7.88644 268.688 8.01994V17.4868C268.688 18.2173 268.027 18.9443 266.792 18.3268L264.511 17.0119C264.431 16.9688 264.375 16.8819 264.375 16.7904V7.20132C264.375 7.11094 264.479 7.02019 264.559 6.97388L272.889 2.18119C272.966 2.13713 273.081 2.13713 273.158 2.18119L281.386 6.97275C281.465 7.02019 281.437 7.10813 281.437 7.20132V16.7904C281.437 16.8819 281.472 16.971 281.394 17.0151L273.128 21.8106C273.057 21.8531 272.969 21.8531 272.891 21.8106L270.771 20.5451C270.707 20.508 270.631 20.4947 270.57 20.529C269.98 20.8633 269.871 20.9078 269.318 21.0996C269.182 21.147 268.981 21.2293 269.395 21.4613L272.17 23.1026C272.434 23.2556 272.735 23.3362 273.041 23.3363C273.349 23.3363 273.65 23.2564 273.916 23.1026L282.144 18.306C282.682 17.9925 282.938 17.4128 282.938 16.7904V7.20132C282.938 6.579 282.683 5.99869 282.145 5.68763V5.68763ZM275.608 15.2709C273.41 15.2709 272.925 14.6644 272.764 13.5711C272.745 13.4533 272.645 13.3125 272.525 13.3125H271.451C271.318 13.3125 271.211 13.4738 271.211 13.6061C271.211 15.006 271.972 16.7021 275.608 16.7021C278.241 16.7021 279.75 15.6793 279.75 13.8692C279.75 12.0744 278.537 11.6034 275.984 11.2656C273.404 10.9245 273.142 10.7522 273.142 10.1477C273.142 9.64932 273.364 8.98463 275.275 8.98463C276.982 8.98463 277.611 9.351 277.87 10.5017C277.892 10.6099 277.991 10.6875 278.102 10.6875H279.181C279.248 10.6875 279.311 10.6607 279.358 10.6133C279.403 10.5623 279.426 10.4983 279.42 10.4297C279.253 8.44819 277.937 7.52475 275.274 7.52475C272.906 7.52475 271.493 8.52488 271.493 10.2013C271.493 12.0197 272.899 12.5222 275.172 12.747C277.892 13.0136 278.104 13.4111 278.104 13.9461C278.104 14.8751 277.358 15.2709 275.608 15.2709Z" fill="#83CD29"/>
<path fill-rule="evenodd" clip-rule="evenodd" d="M306.507 8.02722C306.808 8.89778 307.025 9.78653 307.096 10.7077C307.185 11.8505 307.144 12.9853 306.903 14.1093C306.897 14.1403 306.883 14.1693 306.872 14.1993C306.797 14.1995 306.72 14.1902 306.646 14.2016C306.022 14.2997 305.398 14.4013 304.774 14.5023C304.13 14.6068 303.484 14.7071 302.841 14.8187C302.613 14.858 302.331 14.811 302.239 15.1263C302.236 15.135 302.21 15.1365 302.194 15.1413L302.226 13.2568L302.194 8.70953L302.494 8.65797C302.986 8.57753 303.477 8.49597 303.968 8.41778C304.555 8.3246 305.142 8.23403 305.729 8.1431C305.988 8.10278 306.248 8.06585 306.507 8.02722V8.02722Z" fill="#439934"/>
<path fill-rule="evenodd" clip-rule="evenodd" d="M301.574 20.6351C301.257 20.3627 300.929 20.1023 300.626 19.8158C298.991 18.2741 297.796 16.4597 297.207 14.2721C297.045 13.6701 296.937 13.0583 296.902 12.4361C296.877 12.0008 296.842 11.5615 296.873 11.1283C296.955 9.97633 297.121 8.83539 297.459 7.72576L297.478 7.69989C297.511 7.74358 297.558 7.7822 297.575 7.83152C297.904 8.80277 298.232 9.77477 298.557 10.7473C299.581 13.8036 300.603 16.8606 301.628 19.9161C301.648 19.9757 301.7 20.0246 301.737 20.0785L301.574 20.6351V20.6351Z" fill="#45A538"/>
<path fill-rule="evenodd" clip-rule="evenodd" d="M306.507 8.02725C306.248 8.06588 305.988 8.10281 305.729 8.14275C305.142 8.23369 304.555 8.32425 303.968 8.41744C303.477 8.49563 302.985 8.57719 302.494 8.65763L302.194 8.70919L302.191 8.51325C302.182 8.35219 302.164 8.19131 302.163 8.03025C302.15 7.00313 302.142 5.976 302.129 4.94888C302.121 4.30594 302.109 3.66319 302.096 3.02044C302.088 2.62106 302.079 2.2215 302.061 1.82269C302.052 1.60838 302.017 1.39519 302.003 1.18088C301.995 1.05769 302.006 0.933564 302.008 0.809814C302.162 1.10663 302.311 1.40569 302.469 1.70025C302.718 2.166 303.114 2.50913 303.471 2.88356C304.882 4.36331 305.883 6.08381 306.507 8.02725V8.02725Z" fill="#46A037"/>
<path fill-rule="evenodd" clip-rule="evenodd" d="M302.194 15.1412C302.209 15.1363 302.236 15.1348 302.238 15.1262C302.33 14.8108 302.613 14.8579 302.841 14.8185C303.484 14.7071 304.13 14.6066 304.774 14.5022C305.398 14.4011 306.022 14.2995 306.646 14.2015C306.72 14.1898 306.797 14.1994 306.872 14.1992C306.756 14.6155 306.664 15.0407 306.516 15.4455C306.348 15.9047 306.145 16.3528 305.929 16.7921C305.606 17.4474 305.206 18.0619 304.738 18.6227C304.378 19.0555 303.977 19.4554 303.575 19.8505C303.352 20.0689 303.09 20.2468 302.847 20.4431L302.784 20.4L302.556 20.2054L302.32 19.6892C302.16 19.087 302.072 18.4677 302.059 17.8446L302.063 17.7394L302.095 17.2845C302.106 17.1293 302.12 16.9742 302.127 16.8186C302.151 16.2595 302.172 15.7003 302.194 15.1412V15.1412Z" fill="#409433"/>
<path fill-rule="evenodd" clip-rule="evenodd" d="M302.194 15.1412C302.172 15.7003 302.151 16.2594 302.127 16.8187C302.121 16.9744 302.107 17.1294 302.096 17.2847L301.952 17.3389C301.634 16.401 301.315 15.4731 301.003 14.5427C300.488 13.0035 299.978 11.4619 299.463 9.92231C299.047 8.67964 298.629 7.43795 298.207 6.19724C298.187 6.13912 298.131 6.09374 298.091 6.04237L299.009 4.35449C299.041 4.40924 299.083 4.46043 299.102 4.5193C299.528 5.77595 299.951 7.03333 300.371 8.29143C300.918 9.92831 301.462 11.5665 302.008 13.2036C302.03 13.269 302.066 13.3294 302.1 13.4027L302.226 13.2564L302.194 15.1412V15.1412Z" fill="#4FAA41"/>
<path fill-rule="evenodd" clip-rule="evenodd" d="M298.092 6.04254C298.131 6.09392 298.187 6.13929 298.207 6.19742C298.629 7.43813 299.048 8.67982 299.463 9.92248C299.978 11.462 300.488 13.0037 301.003 14.5429C301.315 15.473 301.634 16.4012 301.953 17.339L302.096 17.2849L302.064 17.7397L302.035 17.8445C301.985 18.3425 301.943 18.8417 301.882 19.3385C301.852 19.5875 301.787 19.832 301.737 20.0786C301.7 20.0248 301.648 19.9758 301.628 19.9162C300.603 16.8605 299.581 13.8037 298.558 10.7475C298.232 9.77485 297.904 8.80291 297.575 7.83167C297.558 7.78235 297.511 7.74373 297.478 7.70004L298.092 6.04254V6.04254Z" fill="#4AA73C"/>
<path fill-rule="evenodd" clip-rule="evenodd" d="M302.225 13.2566L302.1 13.4029C302.065 13.3296 302.029 13.269 302.008 13.2038C301.461 11.5667 300.918 9.92852 300.371 8.29164C299.95 7.03354 299.527 5.77616 299.102 4.51952C299.082 4.46064 299.041 4.40927 299.009 4.3547L300.144 2.86127C300.18 2.90908 300.231 2.95164 300.25 3.00545C300.565 3.92814 300.877 4.85195 301.188 5.77633C301.478 6.63958 301.764 7.50414 302.057 8.36627C302.077 8.42402 302.145 8.46489 302.191 8.51364L302.193 8.70958C302.204 10.225 302.215 11.7409 302.225 13.2566V13.2566Z" fill="#57AE47"/>
<path fill-rule="evenodd" clip-rule="evenodd" d="M302.191 8.51326C302.146 8.46451 302.077 8.42363 302.058 8.36588C301.764 7.50376 301.478 6.6392 301.188 5.77595C300.878 4.85157 300.565 3.92795 300.25 3.00507C300.232 2.95126 300.181 2.9087 300.145 2.86088C300.514 2.49938 300.872 2.12495 301.256 1.78013C301.597 1.47376 301.872 1.14526 301.884 0.661133C301.885 0.641071 301.895 0.621008 301.912 0.564758L302.009 0.809633C302.006 0.933571 301.995 1.05751 302.003 1.1807C302.017 1.39501 302.052 1.6082 302.062 1.82251C302.08 2.22132 302.088 2.62088 302.096 3.02026C302.109 3.66301 302.121 4.30576 302.129 4.9487C302.142 5.97582 302.15 7.00295 302.163 8.03007C302.164 8.19151 302.181 8.35219 302.191 8.51326V8.51326Z" fill="#60B24F"/>
<path fill-rule="evenodd" clip-rule="evenodd" d="M301.737 20.0785C301.786 19.8319 301.851 19.5872 301.882 19.3384C301.943 18.8417 301.985 18.3424 302.034 17.8444L302.047 17.8425L302.059 17.8446C302.072 18.4677 302.16 19.0871 302.321 19.6892C302.288 19.7327 302.241 19.7715 302.223 19.8207C302.087 20.205 301.959 20.5924 301.822 20.9768C301.803 21.0293 301.751 21.0702 301.714 21.1163L301.574 20.6352L301.737 20.0785V20.0785Z" fill="#A9AA88"/>
<path fill-rule="evenodd" clip-rule="evenodd" d="M301.714 21.1165C301.751 21.0703 301.803 21.0295 301.822 20.977C301.959 20.5926 302.088 20.2054 302.224 19.8208C302.241 19.7717 302.288 19.7329 302.321 19.6894L302.556 20.2058C302.51 20.2718 302.445 20.3312 302.42 20.4047L301.969 21.7283C301.95 21.7813 301.887 21.8188 301.845 21.8636L301.714 21.1165V21.1165Z" fill="#B6B598"/>
<path fill-rule="evenodd" clip-rule="evenodd" d="M301.845 21.8634C301.887 21.8188 301.95 21.7811 301.969 21.7281L302.42 20.4045C302.445 20.3312 302.51 20.2716 302.556 20.2056L302.784 20.4C302.674 20.5088 302.613 20.6344 302.649 20.7932L302.58 21.0197C302.549 21.0585 302.503 21.0923 302.488 21.1367C302.33 21.5873 302.18 22.0403 302.022 22.4908C302.002 22.548 301.946 22.5928 301.907 22.6431C301.886 22.383 301.865 22.1235 301.845 21.8634V21.8634Z" fill="#C2C1A7"/>
<path fill-rule="evenodd" clip-rule="evenodd" d="M301.907 22.6431C301.946 22.5927 302.002 22.5478 302.022 22.4908C302.18 22.0405 302.331 21.5875 302.488 21.1367C302.503 21.0925 302.549 21.0585 302.58 21.0197L302.485 22.0594C302.46 22.0888 302.423 22.1145 302.41 22.1488C302.303 22.4515 302.201 22.7563 302.093 23.059C302.071 23.1214 302.028 23.1765 301.994 23.2348C301.965 23.196 301.912 23.1585 301.909 23.118C301.9 22.9603 301.906 22.8015 301.907 22.6431V22.6431Z" fill="#CECDB7"/>
<path fill-rule="evenodd" clip-rule="evenodd" d="M301.994 23.2348C302.028 23.1763 302.07 23.1212 302.093 23.0589C302.201 22.7565 302.302 22.4516 302.41 22.1488C302.422 22.1145 302.46 22.089 302.485 22.0594L302.487 22.7419L302.259 23.3276L301.994 23.2348V23.2348Z" fill="#DBDAC7"/>
<path fill-rule="evenodd" clip-rule="evenodd" d="M302.259 23.3278L302.487 22.7421L302.534 23.4351L302.259 23.3278V23.3278Z" fill="#EBE9DC"/>
<path fill-rule="evenodd" clip-rule="evenodd" d="M302.649 20.7934C302.613 20.6346 302.674 20.5088 302.784 20.4002L302.847 20.4433L302.649 20.7934V20.7934Z" fill="#CECDB7"/>
<path fill-rule="evenodd" clip-rule="evenodd" d="M302.059 17.8447L302.047 17.8427L302.035 17.8446L302.064 17.7397L302.059 17.8447V17.8447Z" fill="#4FAA41"/>
<path d="M331.005 17.5676C337.072 17.5676 341.991 15.0748 341.991 12C341.991 8.92519 337.073 6.43237 331.005 6.43237C324.937 6.43237 320.019 8.92519 320.019 12C320.019 15.0748 324.937 17.5676 331.005 17.5676V17.5676Z" fill="#6181B6"/>
<path d="M333.231 13.7996L333.775 10.995C333.898 10.3618 333.796 9.8895 333.472 9.59138C333.157 9.30263 332.624 9.16238 331.84 9.16238H330.896L331.166 7.77263C331.171 7.74677 331.17 7.72014 331.164 7.69462C331.157 7.66911 331.145 7.64535 331.128 7.62502C331.112 7.6047 331.091 7.58832 331.067 7.57705C331.043 7.56578 331.017 7.55989 330.991 7.55981H329.688C329.647 7.55983 329.607 7.57425 329.575 7.60062C329.543 7.62699 329.521 7.66367 329.513 7.70438L328.934 10.6821C328.882 10.347 328.752 10.059 328.544 9.82125C328.162 9.384 327.558 9.16219 326.748 9.16219H324.223C324.182 9.16214 324.141 9.17654 324.109 9.20293C324.077 9.22931 324.056 9.26603 324.048 9.30675L322.876 15.3338C322.871 15.3596 322.872 15.3862 322.879 15.4118C322.885 15.4373 322.897 15.461 322.914 15.4814C322.931 15.5017 322.952 15.518 322.976 15.5293C322.999 15.5405 323.025 15.5464 323.052 15.5464H324.365C324.406 15.5464 324.446 15.532 324.478 15.5056C324.51 15.4792 324.532 15.4425 324.54 15.4018L324.823 13.944H325.801C326.314 13.944 326.744 13.8885 327.081 13.7788C327.425 13.6671 327.741 13.4775 328.02 13.2161C328.24 13.0163 328.427 12.7838 328.575 12.5269L328.341 13.7314C328.336 13.7572 328.337 13.7839 328.343 13.8095C328.35 13.835 328.362 13.8589 328.379 13.8792C328.396 13.8995 328.417 13.9159 328.44 13.9271C328.464 13.9383 328.49 13.9441 328.517 13.944H329.819C329.861 13.944 329.901 13.9296 329.933 13.9032C329.965 13.8768 329.987 13.8401 329.995 13.7994L330.638 10.491H331.532C331.912 10.491 332.024 10.5668 332.054 10.5994C332.082 10.6292 332.139 10.734 332.075 11.0644L331.557 13.7312C331.551 13.7571 331.552 13.7837 331.559 13.8093C331.565 13.8349 331.577 13.8587 331.594 13.879C331.611 13.8993 331.632 13.9157 331.656 13.9269C331.679 13.9381 331.705 13.9439 331.732 13.9438H333.055C333.097 13.9439 333.137 13.9295 333.169 13.9032C333.201 13.8769 333.223 13.8403 333.231 13.7996ZM327.192 11.4821C327.11 11.9025 326.955 12.2025 326.733 12.3737C326.507 12.5475 326.146 12.6356 325.659 12.6356H325.077L325.498 10.4704H326.25C326.803 10.4704 327.026 10.5885 327.115 10.6875C327.239 10.8251 327.266 11.0998 327.192 11.4821V11.4821ZM338.801 9.82125C338.419 9.384 337.814 9.16219 337.004 9.16219H334.48C334.438 9.16213 334.398 9.17653 334.366 9.20291C334.334 9.22929 334.312 9.26601 334.304 9.30675L333.133 15.3338C333.128 15.3596 333.129 15.3862 333.135 15.4118C333.142 15.4373 333.154 15.461 333.17 15.4814C333.187 15.5017 333.208 15.518 333.232 15.5293C333.256 15.5405 333.282 15.5464 333.308 15.5464H334.621C334.663 15.5464 334.703 15.5319 334.735 15.5056C334.767 15.4792 334.789 15.4425 334.796 15.4018L335.08 13.944H336.057C336.57 13.944 337.001 13.8885 337.337 13.7788C337.681 13.6671 337.998 13.4775 338.277 13.2161C338.51 13.0022 338.701 12.7622 338.846 12.5025C338.994 12.234 339.099 11.9436 339.156 11.6423C339.305 10.8746 339.186 10.2617 338.801 9.82125V9.82125ZM337.439 11.4821C337.357 11.9025 337.203 12.2025 336.981 12.3737C336.755 12.5475 336.394 12.6356 335.907 12.6356H335.325L335.746 10.4704H336.498C337.051 10.4704 337.274 10.5885 337.363 10.6875C337.487 10.8251 337.513 11.0998 337.439 11.4821Z" fill="white"/>
<path d="M326.251 10.2919C326.749 10.2919 327.082 10.384 327.248 10.5683C327.414 10.7524 327.454 11.0685 327.367 11.5165C327.276 11.983 327.101 12.316 326.842 12.5155C326.583 12.7148 326.189 12.8145 325.659 12.8145H324.861L325.351 10.2921H326.251V10.2919V10.2919ZM323.052 15.3679H324.365L324.676 13.7655H325.801C326.297 13.7655 326.705 13.7136 327.025 13.6092C327.346 13.5049 327.637 13.3302 327.899 13.0847C328.112 12.8916 328.292 12.6657 328.434 12.4155C328.57 12.1718 328.667 11.9029 328.724 11.6083C328.863 10.8938 328.758 10.3375 328.409 9.93884C328.061 9.54022 327.507 9.3409 326.748 9.3409H324.223L323.052 15.3679V15.3679ZM329.688 7.73834H330.991L330.679 9.34072H331.84C332.57 9.34072 333.073 9.46822 333.351 9.72265C333.628 9.97747 333.711 10.3903 333.6 10.9607L333.055 13.7655H331.732L332.25 11.0987C332.309 10.7953 332.287 10.5883 332.185 10.4779C332.082 10.3678 331.865 10.3125 331.531 10.3125H330.49L329.819 13.7655H328.517L329.688 7.73834V7.73834ZM336.498 10.2919C336.997 10.2919 337.33 10.384 337.496 10.5683C337.662 10.7524 337.701 11.0685 337.614 11.5165C337.524 11.983 337.349 12.316 337.09 12.5155C336.83 12.7148 336.436 12.8145 335.907 12.8145H335.108L335.598 10.2921H336.498V10.2919V10.2919ZM333.299 15.3679H334.612L334.924 13.7655H336.048C336.544 13.7655 336.953 13.7136 337.273 13.6092C337.594 13.5049 337.885 13.3302 338.147 13.0847C338.36 12.8916 338.54 12.6657 338.681 12.4155C338.818 12.1718 338.914 11.9029 338.972 11.6083C339.11 10.8938 339.006 10.3375 338.657 9.93884C338.309 9.54022 337.755 9.3409 336.995 9.3409H334.471L333.299 15.3679V15.3679Z" fill="#000004"/>
<path d="M371.472 5.00036C371.102 5.01084 371.219 5.10471 370.419 5.27793C369.611 5.45289 368.624 5.39919 367.754 5.72031C365.157 6.6788 364.635 9.9546 362.274 11.1281C360.51 12.0052 358.729 12.0752 357.128 12.5166C356.076 12.8069 354.925 13.4022 353.972 14.1251C353.232 14.6862 353.213 15.1797 352.44 15.8837C351.613 16.6365 349.154 15.8964 348.039 17.0487C348.398 17.3682 348.556 17.4577 349.263 17.3748C349.117 17.6191 348.253 17.825 348.422 18.1845C348.6 18.5627 350.688 18.819 352.586 17.8108C353.47 17.3412 354.174 16.6643 355.55 16.5028C357.332 16.2939 359.384 16.6368 361.446 16.8985C361.14 17.7008 360.526 18.2343 360.034 18.8732C359.882 19.0176 360.34 19.0338 360.863 18.9466C361.803 18.742 362.481 18.5772 363.19 18.2138C364.062 17.7672 364.194 16.6223 365.264 16.3746C365.86 17.1806 367.481 17.371 368.487 16.7263C367.604 16.5064 367.36 14.8534 367.658 14.1251C367.94 13.4355 368.219 12.3326 368.503 11.4211C368.808 10.4423 368.921 9.20859 369.29 8.70996C369.846 7.95982 370.46 7.70222 370.992 7.27923C371.525 6.85615 372.013 6.44446 371.997 5.47648C371.992 5.16468 371.809 4.99096 371.472 5.00036V5.00036Z" fill="#002B64"/>
<path d="M348.806 18.1154C350.157 18.2858 350.979 18.1154 352.064 17.7013C352.988 17.3489 353.88 16.6223 354.97 16.3143C356.572 15.8621 358.328 16.3149 360.04 16.4052C360.457 16.4272 360.872 16.4275 361.281 16.3883C361.918 16.0433 361.905 14.7532 362.526 14.635C362.508 16.4451 361.664 17.5297 360.782 18.58C362.641 18.2911 363.754 17.345 364.505 16.0814C364.733 15.6982 364.928 15.286 365.1 14.854C365.366 15.0337 365.215 15.5805 365.349 15.8768C366.629 15.2492 367.362 13.8169 367.848 12.3682C368.41 10.6917 368.64 8.99405 369.002 8.49797C369.355 8.01378 369.906 7.71534 370.408 7.40536C370.979 7.05289 371.488 6.68558 371.576 6.01406C370.974 5.96506 370.835 5.84249 370.746 5.57556C370.444 5.72503 370.167 5.75703 369.854 5.76528C369.582 5.77254 369.284 5.7619 368.919 5.79481C365.905 6.06726 365.521 8.99116 363.589 10.6486C363.447 10.7701 363.295 10.8832 363.136 10.9872C362.459 11.4309 361.629 11.748 360.866 12.0048C359.63 12.4203 358.455 12.4498 357.295 12.8085C356.444 13.0717 355.579 13.4535 354.88 13.8745C354.712 13.9756 354.548 14.083 354.389 14.1965C353.979 14.4918 353.71 14.8195 353.449 15.1566C353.181 15.5039 352.921 15.8613 352.526 16.2027C351.885 16.7562 349.492 16.3641 348.649 16.8774C348.555 16.9345 348.48 17.0031 348.429 17.0854C348.889 17.2693 349.196 17.1564 349.725 17.2079C349.795 17.6496 348.634 17.9121 348.806 18.1155V18.1154ZM367.07 14.9336C367.106 15.4403 367.441 16.4455 367.736 16.69C367.158 16.8137 366.162 16.6093 365.907 16.2505C366.038 15.7325 366.721 15.2591 367.07 14.9336Z" fill="#C59B6C"/>
<path d="M367.917 6.89183C368.344 7.21782 369.239 6.95617 369.079 6.3075C368.416 6.25917 368.032 6.45722 367.917 6.89183ZM370.892 6.13371C370.779 6.34322 370.562 6.61336 370.562 7.14663C370.561 7.23819 370.482 7.30096 370.481 7.15983C370.487 6.63852 370.644 6.41325 370.81 6.11713C370.888 5.99579 370.934 6.04586 370.892 6.13371V6.13371Z" fill="#002B64"/>
<path d="M370.778 6.0549C370.644 6.25476 370.322 6.61944 370.268 7.15073C370.259 7.2418 370.174 7.29822 370.187 7.15742C370.245 6.63874 370.503 6.31407 370.698 6.03188C370.787 5.91714 370.829 5.9706 370.778 6.0549ZM370.674 5.9503C370.521 6.13953 370.025 6.57745 369.921 7.10306C369.902 7.19297 369.813 7.24312 369.839 7.10372C369.947 6.59106 370.375 6.18811 370.597 5.9216C370.696 5.81354 370.732 5.87004 370.674 5.9503V5.9503ZM370.581 5.83367C370.4 6.00211 369.808 6.56054 369.621 7.068C369.588 7.15469 369.492 7.19338 369.54 7.0586C369.728 6.56434 370.247 6.03188 370.509 5.79556C370.625 5.70095 370.652 5.76133 370.581 5.83367Z" fill="#002B64"/>
<defs>
<linearGradient id="paint0_linear_9_45" x1="48.3905" y1="9.92654" x2="52.6912" y2="9.92654" gradientUnits="userSpaceOnUse">
<stop stop-color="#2972E2"/>
<stop offset="1" stop-color="#26C7FC"/>
</linearGradient>
<linearGradient id="paint1_linear_9_45" x1="42.1519" y1="13.6538" x2="45.1035" y2="12.8939" gradientUnits="userSpaceOnUse">
<stop stop-color="#26C4FB"/>
<stop offset="1" stop-color="#2977E3"/>
</linearGradient>
<linearGradient id="paint2_linear_9_45" x1="42.8365" y1="12.8932" x2="45.908" y2="12.1024" gradientUnits="userSpaceOnUse">
<stop stop-color="#26C4FB"/>
<stop offset="1" stop-color="#2977E3"/>
</linearGradient>
<linearGradient id="paint3_linear_9_45" x1="43.7389" y1="7.9756" x2="48.3905" y2="7.9756" gradientUnits="userSpaceOnUse">
<stop stop-color="#2972E2"/>
<stop offset="1" stop-color="#26C7FC"/>
</linearGradient>
<linearGradient id="paint4_linear_9_45" x1="48.2485" y1="9.31051" x2="48.201" y2="10.1915" gradientUnits="userSpaceOnUse">
<stop stop-color="#26C4FB"/>
<stop offset="1" stop-color="#2977E3"/>
</linearGradient>
<linearGradient id="paint5_linear_9_45" x1="31.3298" y1="8.60743" x2="40.5577" y2="6.91733" gradientUnits="userSpaceOnUse">
<stop stop-color="#26C4FB"/>
<stop offset="1" stop-color="#2977E3"/>
</linearGradient>
<linearGradient id="paint6_linear_9_45" x1="35.078" y1="6.66013" x2="43.7918" y2="6.66013" gradientUnits="userSpaceOnUse">
<stop stop-color="#26C4FB"/>
<stop offset="1" stop-color="#2977E3"/>
</linearGradient>
<linearGradient id="paint7_linear_9_45" x1="48.3905" y1="7.58966" x2="50.6479" y2="7.58966" gradientUnits="userSpaceOnUse">
<stop stop-color="#279FF0"/>
<stop offset="1" stop-color="#8DE1FD"/>
</linearGradient>
<linearGradient id="paint8_linear_9_45" x1="48.3769" y1="8.05673" x2="52.6776" y2="8.05673" gradientUnits="userSpaceOnUse">
<stop stop-color="#279FF0"/>
<stop offset="1" stop-color="#8DE1FD"/>
</linearGradient>
<linearGradient id="paint9_linear_9_45" x1="51.0099" y1="11.2842" x2="52.6912" y2="11.2842" gradientUnits="userSpaceOnUse">
<stop stop-color="#279FF0"/>
<stop offset="1" stop-color="#8DE1FD"/>
</linearGradient>
<linearGradient id="paint10_linear_9_45" x1="44.6478" y1="4.71539" x2="48.8758" y2="4.71539" gradientUnits="userSpaceOnUse">
<stop stop-color="#26C4FB"/>
<stop offset="1" stop-color="#2977E3"/>
</linearGradient>
<linearGradient id="paint11_linear_9_45" x1="40.3338" y1="3.96174" x2="46.9729" y2="3.96174" gradientUnits="userSpaceOnUse">
<stop stop-color="#279FF0"/>
<stop offset="1" stop-color="#8DE1FD"/>
</linearGradient>
<linearGradient id="paint12_linear_9_45" x1="35.078" y1="5.11541" x2="44.7225" y2="5.11541" gradientUnits="userSpaceOnUse">
<stop stop-color="#26C4FB"/>
<stop offset="1" stop-color="#2977E3"/>
</linearGradient>
<linearGradient id="paint13_linear_9_45" x1="44.6605" y1="6.01275" x2="48.8759" y2="5.75904" gradientUnits="userSpaceOnUse">
<stop stop-color="#2972E2"/>
<stop offset="1" stop-color="#26C7FC"/>
</linearGradient>
<linearGradient id="paint14_linear_9_45" x1="45.6995" y1="7.58966" x2="48.8759" y2="7.58966" gradientUnits="userSpaceOnUse">
<stop stop-color="#2972E2"/>
<stop offset="1" stop-color="#26C7FC"/>
</linearGradient>
<linearGradient id="paint15_linear_9_45" x1="43.6527" y1="8.26986" x2="48.3906" y2="8.26986" gradientUnits="userSpaceOnUse">
<stop stop-color="#2972E2"/>
<stop offset="1" stop-color="#26C7FC"/>
</linearGradient>
<linearGradient id="paint16_linear_9_45" x1="42.9138" y1="8.34718" x2="36.3343" y2="10.1551" gradientUnits="userSpaceOnUse">
<stop stop-color="#2972E2"/>
<stop offset="1" stop-color="#26C7FC"/>
</linearGradient>
<linearGradient id="paint17_linear_9_45" x1="45.989" y1="11.8771" x2="45.7508" y2="8.9033" gradientUnits="userSpaceOnUse">
<stop stop-color="#26C4FB"/>
<stop offset="1" stop-color="#2977E3"/>
</linearGradient>
<linearGradient id="paint18_linear_9_45" x1="32.8072" y1="10.5486" x2="42.9794" y2="7.88269" gradientUnits="userSpaceOnUse">
<stop stop-color="#26C4FB"/>
<stop offset="1" stop-color="#2977E3"/>
</linearGradient>
<linearGradient id="paint19_linear_9_45" x1="29.3" y1="11.8476" x2="39.9984" y2="11.8476" gradientUnits="userSpaceOnUse">
<stop stop-color="#26C4FB"/>
<stop offset="1" stop-color="#2977E3"/>
</linearGradient>
<linearGradient id="paint20_linear_9_45" x1="29.8905" y1="12.5056" x2="39.9984" y2="12.5056" gradientUnits="userSpaceOnUse">
<stop stop-color="#26C4FB"/>
<stop offset="1" stop-color="#2977E3"/>
</linearGradient>
<linearGradient id="paint21_linear_9_45" x1="35.0114" y1="12.3328" x2="37.1841" y2="15.0515" gradientUnits="userSpaceOnUse">
<stop stop-color="#279FF0"/>
<stop offset="1" stop-color="#8DE1FD"/>
</linearGradient>
<linearGradient id="paint22_linear_9_45" x1="35.2545" y1="13.0464" x2="39.9984" y2="14.7032" gradientUnits="userSpaceOnUse">
<stop stop-color="#26C4FB"/>
<stop offset="1" stop-color="#2977E3"/>
</linearGradient>
<linearGradient id="paint23_linear_9_45" x1="39.9984" y1="13.5025" x2="45.5621" y2="13.5025" gradientUnits="userSpaceOnUse">
<stop stop-color="#26C4FB"/>
<stop offset="1" stop-color="#2977E3"/>
</linearGradient>
<linearGradient id="paint24_linear_9_45" x1="39.9984" y1="14.1903" x2="44.8045" y2="14.1903" gradientUnits="userSpaceOnUse">
<stop stop-color="#2972E2"/>
<stop offset="1" stop-color="#26C7FC"/>
</linearGradient>
<linearGradient id="paint25_linear_9_45" x1="35.9521" y1="14.0944" x2="40.5472" y2="15.6768" gradientUnits="userSpaceOnUse">
<stop stop-color="#26C4FB"/>
<stop offset="1" stop-color="#2977E3"/>
</linearGradient>
<linearGradient id="paint26_linear_9_45" x1="39.9984" y1="14.9214" x2="44.0717" y2="14.9214" gradientUnits="userSpaceOnUse">
<stop stop-color="#2972E2"/>
<stop offset="1" stop-color="#26C7FC"/>
</linearGradient>
<linearGradient id="paint27_linear_9_45" x1="38.0668" y1="15.4881" x2="41.1494" y2="15.42" gradientUnits="userSpaceOnUse">
<stop stop-color="#26C4FB"/>
<stop offset="1" stop-color="#2977E3"/>
</linearGradient>
<linearGradient id="paint28_linear_9_45" x1="39.9984" y1="15.2667" x2="42.8252" y2="15.2667" gradientUnits="userSpaceOnUse">
<stop stop-color="#26C4FB"/>
<stop offset="1" stop-color="#2977E3"/>
</linearGradient>
<linearGradient id="paint29_linear_9_45" x1="39.7603" y1="9.96681" x2="45.4996" y2="14.6545" gradientUnits="userSpaceOnUse">
<stop stop-color="#26C4FB"/>
<stop offset="1" stop-color="#2977E3"/>
</linearGradient>
<clipPath id="clip0_9_45">
<rect width="24" height="24" fill="white" transform="translate(58)"/>
</clipPath>
<clipPath id="clip1_9_45">
<rect width="24" height="24" fill="white" transform="translate(174)"/>
</clipPath>
</defs>
</svg>
