<svg width="372" height="24" viewBox="0 0 372 24" fill="none" xmlns="http://www.w3.org/2000/svg">
<path d="M23.625 0.306946L11.0625 2.15082V11.4941L23.625 11.394V0.306946ZM0.308817 12.5079L0.30938 20.4587L9.83269 21.768L9.82519 12.5698L0.308817 12.5079ZM10.9626 12.6354L10.9802 21.9101L23.6132 23.6931L23.6162 12.6563L10.9626 12.6354ZM0.30188 3.6182L0.310692 11.565L9.83401 11.5108L9.82969 2.32032L0.30188 3.6182Z" fill="#00ADEF"/>
<path d="M39.9626 20.6693C38.5649 20.2037 36.7601 19.6165 36.727 19.6165C36.702 19.6165 36.673 19.6686 36.6267 19.7971C36.5908 19.8965 36.5615 19.985 36.5615 19.9938C36.5615 20.0026 36.5496 20.0261 36.5351 20.046C36.5049 20.0875 36.609 20.1396 35.0347 19.2944C33.8653 18.6666 33.8348 18.6515 33.7978 18.6824C33.7818 18.6956 33.6461 18.8784 33.4962 19.0886L33.2236 19.4707L33.1945 19.401C33.1641 19.3281 32.6536 17.8766 32.1913 16.5481C32.0426 16.1211 31.9125 15.7718 31.9021 15.7718C31.8742 15.7718 31.5235 16.0151 30.9176 16.455C30.6223 16.6694 30.3776 16.8419 30.3738 16.8384C30.3701 16.8349 30.5396 16.4438 30.7504 15.9692C31.4241 14.4528 31.4731 14.3353 31.4318 14.3353C31.4251 14.3353 31.0934 14.5024 30.6948 14.7066C30.2961 14.9109 29.9699 15.073 29.9699 15.0668C29.9699 15.0607 30.0884 14.6916 30.2332 14.2466C30.378 13.8016 30.4964 13.425 30.4964 13.4097C30.4964 13.3752 30.5153 13.3695 29.9394 13.5775C29.6852 13.6694 29.4702 13.742 29.4617 13.7389C29.4456 13.733 29.6874 13.4664 30.6833 12.3921C31.2378 11.7938 31.2982 11.721 31.5236 11.3778C32.1043 10.4938 32.5813 9.7497 32.5813 9.72777C32.5813 9.71427 32.5609 9.7084 32.5339 9.71416C32.5079 9.71972 32.2838 9.76878 32.0359 9.8232C31.7881 9.87762 31.5718 9.91934 31.5554 9.91591C31.539 9.91246 32.0924 9.55626 32.7852 9.1243C35.3797 7.50671 35.9038 7.18751 36.044 7.13962C36.097 7.1215 36.1403 7.10182 36.1403 7.09587C36.1403 7.08993 35.92 7.09195 35.6507 7.10034C35.3814 7.10875 35.1658 7.11123 35.1716 7.10585C35.184 7.09435 37.5894 5.22512 38.5937 4.44656C39.4024 3.8197 40.1102 3.28085 40.2507 3.18518C40.3335 3.12878 40.3688 3.11808 40.4718 3.1181C40.5392 3.11812 41.2293 3.16078 42.0054 3.2129C45.5798 3.45298 46.8523 3.54349 46.8932 3.56057C46.9176 3.5707 47.3607 4.10412 47.8781 4.74589L48.8187 5.91276L49.6871 6.31309C50.1647 6.53328 50.5569 6.71487 50.5587 6.71663C50.5587 6.71663 50.6286 6.83767 50.5765 6.77392L50.636 6.84194C50.7507 6.9732 52.593 9.43974 52.602 9.47402C52.6099 9.5044 52.3702 11.5714 52.3454 11.6859C52.3368 11.7261 51.1149 12.9114 51.1149 13.019C51.1111 13.0152 51.1407 12.5469 51.1806 11.9784C51.2204 11.4099 51.318 10.8445 51.2663 10.7509L51.1593 10.5571L51.068 10.5448C50.9676 10.5314 49.155 10.4157 46.7542 10.2696C45.9029 10.2177 45.1282 10.1697 45.0326 10.1629L44.8589 10.1504V10.2162C44.8589 10.2855 45.0616 12.0621 45.3444 14.4715L45.5129 15.907L45.4392 16.0137C45.3986 16.0723 45.2006 16.3484 44.9992 16.6272L44.633 17.1341L44.6865 17.2302L44.74 17.3262L44.273 17.908C44.0161 18.2279 43.8059 18.5059 43.8059 18.5258C43.8059 18.5457 43.8506 18.6675 43.9052 18.7966L44.0045 19.0313L43.9347 19.0862C43.8962 19.1164 43.5886 19.3229 43.251 19.545L42.6371 19.9488L42.6426 20.0203C42.6455 20.0596 42.677 20.2091 42.7125 20.3526C42.7479 20.496 42.7735 20.6168 42.7693 20.621C42.7611 20.6294 41.9864 20.5262 41.1759 20.409C40.8934 20.3681 40.6505 20.3347 40.636 20.3347C40.6159 20.3347 40.6124 20.3982 40.6209 20.6093C40.6272 20.7655 40.6239 20.883 40.6132 20.8818C40.6028 20.8807 40.3101 20.785 39.9626 20.6693L39.9626 20.6693Z" fill="#297BE5"/>
<path d="M47.9896 9.13104L52.6912 9.46118L51.1904 10.5721L47.9896 9.13104Z" fill="url(#paint0_linear_9_45)"/>
<path d="M42.9897 10.0258L45.5646 15.9427L41.2881 9.91577L42.9897 10.0258Z" fill="url(#paint1_linear_9_45)"/>
<path d="M44.8698 9.99449L45.5707 15.9607L42.8365 9.82568L44.8698 9.99449Z" fill="url(#paint2_linear_9_45)"/>
<path d="M43.7389 7.2754L48.3905 9.28092L45.6994 6.67029L43.7389 7.2754Z" fill="url(#paint3_linear_9_45)"/>
<path d="M51.191 10.5682L48.3752 9.24615L39.9107 9.85884L51.191 10.5682Z" fill="url(#paint4_linear_9_45)"/>
<path d="M31.3182 10.0036L35.9769 7.11659L48.0781 6.32599L31.3182 10.0036Z" fill="url(#paint5_linear_9_45)"/>
<path d="M44.687 4.84497C44.687 4.84497 35.6344 7.02178 35.0779 7.15011L35.5416 7.08278L35.0833 7.14976L45.7133 6.68448L45.1458 5.688H45.1459L44.687 4.84497Z" fill="url(#paint6_linear_9_45)"/>
<path d="M50.6479 6.71565L48.3905 9.28089L48.8758 5.89844L50.6479 6.71565Z" fill="url(#paint7_linear_9_45)"/>
<path d="M52.7 9.46248L50.625 6.6969L48.3769 9.24923L52.7 9.46248Z" fill="url(#paint8_linear_9_45)"/>
<path d="M51.0099 13.1072L51.1904 10.5721L52.6912 9.46118L52.4129 11.7423L51.0099 13.1072Z" fill="url(#paint9_linear_9_45)"/>
<path d="M48.8758 5.89849L46.9611 3.53229L44.5799 4.86528L48.8758 5.89849Z" fill="url(#paint10_linear_9_45)"/>
<path d="M40.3338 3.08075L44.6785 4.84274L46.9729 3.53427L40.3338 3.08075Z" fill="url(#paint11_linear_9_45)"/>
<path d="M35.078 7.15006L40.3338 3.08075L44.7083 4.85419L35.078 7.15006Z" fill="url(#paint12_linear_9_45)"/>
<path d="M48.8759 5.89848L45.6827 6.70461L44.6757 4.84778L48.8759 5.89848Z" fill="url(#paint13_linear_9_45)"/>
<path d="M48.8759 5.89844L45.5222 6.70964L48.3906 9.28089L48.8759 5.89844Z" fill="url(#paint14_linear_9_45)"/>
<path d="M43.9916 9.014L48.3906 9.28095L43.7326 7.25037L43.9916 9.014Z" fill="url(#paint15_linear_9_45)"/>
<path d="M44.0173 9.0121L31.2655 11.7158L43.7489 7.24329L44.0173 9.0121Z" fill="url(#paint16_linear_9_45)"/>
<path d="M40.0125 9.85994L44.0375 9.00781L48.4751 9.25989L40.0125 9.85994Z" fill="url(#paint17_linear_9_45)"/>
<path d="M43.7462 7.25171L32.5711 9.72466L31.2655 11.7159L43.7462 7.25171Z" fill="url(#paint18_linear_9_45)"/>
<path d="M39.9984 9.8609L31.2655 11.7159L29.3 13.8343L39.9984 9.8609Z" fill="url(#paint19_linear_9_45)"/>
<path d="M29.8905 15.1503L39.9984 9.8609L30.4826 13.3951L29.8905 15.1503Z" fill="url(#paint20_linear_9_45)"/>
<path d="M30.2713 16.9502L31.4449 14.3369L39.9984 9.8609L30.2713 16.9502Z" fill="url(#paint21_linear_9_45)"/>
<path d="M33.2007 19.5456L31.8676 15.7152L39.9984 9.8609L33.2007 19.5456Z" fill="url(#paint22_linear_9_45)"/>
<path d="M45.5621 15.9328L44.6858 17.144L39.9984 9.8609L45.5621 15.9328Z" fill="url(#paint23_linear_9_45)"/>
<path d="M43.833 18.5197L39.9984 9.8609L44.8045 17.3284L43.833 18.5197Z" fill="url(#paint24_linear_9_45)"/>
<path d="M36.5436 20.1353L33.8159 18.669L39.9984 9.8609L36.5436 20.1353Z" fill="url(#paint25_linear_9_45)"/>
<path d="M44.0717 19.0587L39.9984 9.8609L42.6493 19.982L44.0717 19.0587Z" fill="url(#paint26_linear_9_45)"/>
<path d="M39.9984 9.8609L40.6774 20.9192L36.715 19.6255L39.9984 9.8609Z" fill="url(#paint27_linear_9_45)"/>
<path d="M39.9984 9.8609L40.6407 20.3556L42.8402 20.668L39.9984 9.8609Z" fill="url(#paint28_linear_9_45)"/>
<path d="M41.8705 5.91005C44.0715 4.90013 46.0283 7.996 47.1934 6.73822C46.6855 7.54998 45.5031 7.62381 44.6788 7.62661C44.6788 7.62661 43.4139 7.59649 43.5796 6.53494C43.3062 6.08347 42.4406 6.09247 41.8705 5.91005Z" fill="black"/>
<path d="M43.9333 6.22565C43.8473 6.28761 43.7772 6.36912 43.7288 6.46346C43.6803 6.5578 43.655 6.66229 43.6548 6.76833C43.6548 6.85633 43.6722 6.94347 43.7058 7.02478C43.7395 7.10608 43.7889 7.17996 43.8511 7.24219C43.9133 7.30442 43.9872 7.35378 44.0685 7.38745C44.1498 7.42113 44.237 7.43846 44.325 7.43845C44.5027 7.43842 44.6731 7.3678 44.7987 7.24213C44.9244 7.11646 44.9949 6.94603 44.9949 6.76833C44.9947 6.71437 44.988 6.66063 44.9749 6.60829C44.9361 6.73472 44.8664 6.84374 44.7751 6.92077C44.6838 6.9978 44.5754 7.03917 44.4642 7.03934C44.3195 7.03934 44.1806 6.96955 44.0783 6.84531C43.9759 6.72108 43.9184 6.55258 43.9184 6.37687C43.9186 6.32593 43.9236 6.27519 43.9333 6.22565Z" fill="white"/>
<path d="M49.8454 7.38245C49.8454 7.38245 49.0836 7.57289 49.1788 8.00138C49.1788 8.00138 49.4883 7.97758 49.8454 7.38245Z" fill="black"/>
<path d="M41.3842 9.95132L45.5674 15.9455L39.9926 9.86243L41.3842 9.95132Z" fill="url(#paint29_linear_9_45)"/>
<g clip-path="url(#clip0_9_45)">
<path d="M66.5312 24.1875C68.7625 24.1875 70.5625 22.3875 70.5625 20.1562V16.125H66.5312C64.3 16.125 62.5 17.925 62.5 20.1562C62.5 22.3875 64.3 24.1875 66.5312 24.1875Z" fill="#0ACF83"/>
<path d="M62.5 12.0938C62.5 9.8625 64.3 8.0625 66.5312 8.0625H70.5625V16.125H66.5312C64.3 16.125 62.5 14.325 62.5 12.0938Z" fill="#A259FF"/>
<path d="M62.5 4.03125C62.5 1.8 64.3 0 66.5312 0H70.5625V8.0625H66.5312C64.3 8.0625 62.5 6.2625 62.5 4.03125Z" fill="#F24E1E"/>
<path d="M70.5625 0H74.5938C76.825 0 78.625 1.8 78.625 4.03125C78.625 6.2625 76.825 8.0625 74.5938 8.0625H70.5625V0Z" fill="#FF7262"/>
<path d="M78.625 12.0938C78.625 14.325 76.825 16.125 74.5938 16.125C72.3625 16.125 70.5625 14.325 70.5625 12.0938C70.5625 9.8625 72.3625 8.0625 74.5938 8.0625C76.825 8.0625 78.625 9.8625 78.625 12.0938Z" fill="#1ABCFE"/>
</g>
<path d="M110.389 10.9459L100.055 0.611993C99.4599 0.0168682 98.4947 0.0168682 97.899 0.611993L95.7534 2.75812L98.4756 5.48024C99.1084 5.26668 99.8336 5.40993 100.338 5.91412C100.578 6.15461 100.746 6.45787 100.822 6.78922C100.898 7.12056 100.879 7.46662 100.768 7.78781L103.391 10.4117C104.026 10.1929 104.759 10.3342 105.265 10.842C105.974 11.5502 105.974 12.6982 105.265 13.4068C105.097 13.5753 104.897 13.709 104.677 13.8002C104.457 13.8914 104.221 13.9383 103.982 13.9383C103.744 13.9383 103.508 13.8914 103.288 13.8002C103.068 13.709 102.868 13.5753 102.7 13.4068C102.447 13.1536 102.274 12.8312 102.204 12.4802C102.134 12.1291 102.169 11.7652 102.305 11.4341L99.8584 8.98743L99.858 15.4264C100.036 15.5138 100.198 15.6295 100.338 15.7691C101.046 16.4773 101.046 17.625 100.338 18.3347C99.6293 19.0429 98.4808 19.0429 97.773 18.3347C97.0646 17.6252 97.0065 16.4775 97.7147 15.7691C97.8898 15.5942 98.0625 15.462 98.25 15.3735V8.87493C98.0625 8.78643 97.89 8.65518 97.7145 8.47912C97.1781 7.94287 97.0778 7.15537 97.353 6.49612L94.6843 3.81243L87.6054 10.8981C87.0101 11.4937 87.0139 12.459 87.6092 13.0543L97.9453 23.3882C98.5403 23.9833 99.5063 23.9833 100.102 23.3882L110.388 13.1023C110.984 12.5068 110.984 11.541 110.389 10.9459Z" fill="#F34F29"/>
<path d="M119.569 21.3518L117.693 0.311462H138.306L136.428 21.3486L127.987 23.6886L119.569 21.3518Z" fill="#E44D26"/>
<path d="M128 21.9L134.821 20.0089L136.426 2.03174H128V21.9Z" fill="#F16529"/>
<path d="M128 9.83531H124.585L124.349 7.19268H128V4.6123H121.529L121.591 5.30455L122.225 12.4159H128V9.83531ZM128 16.5371L127.989 16.5403L125.115 15.7641L124.931 13.7062H122.341L122.702 17.7579L127.988 19.2253L128 19.2221V16.5371Z" fill="#EBEBEB"/>
<path d="M127.991 9.83531V12.4159H131.169L130.869 15.7626L127.991 16.5394V19.2242L133.281 17.7579L133.32 17.322L133.926 10.5283L133.989 9.83531H133.294H127.991ZM127.991 4.6123V7.19268H134.224L134.276 6.61293L134.394 5.30455L134.455 4.6123H127.991Z" fill="white"/>
<path d="M148.528 21.398L146.643 0.253479H167.357L165.47 21.3949L156.987 23.7467L148.528 21.398Z" fill="#1572B6"/>
<path d="M157 21.9491L163.855 20.0486L165.468 1.98224H157V21.9491Z" fill="#33A9DC"/>
<path d="M157 9.64292H160.432L160.669 6.98736H157V4.39404H163.503L163.441 5.08986L162.803 12.2362H157V9.64292Z" fill="white"/>
<path d="M157.016 16.378L157.004 16.3813L154.116 15.6015L153.931 13.5332H151.329L151.692 17.6051L157.004 19.0795L157.016 19.0761V16.378Z" fill="#EBEBEB"/>
<path d="M160.211 12.1266L159.899 15.5995L157.007 16.3802V19.0783L162.323 17.605L162.362 17.1668L162.813 12.1266H160.211Z" fill="white"/>
<path d="M157.009 4.39404V6.98736H150.745L150.693 6.40461L150.575 5.08986L150.513 4.39404H157.009ZM157 9.64329V12.2366H154.149L154.097 11.6539L153.978 10.3391L153.916 9.64329H157Z" fill="#EBEBEB"/>
<path fill-rule="evenodd" clip-rule="evenodd" d="M174.229 10.5292C174.229 10.6611 174.267 10.7481 174.289 10.8326C174.431 11.3826 174.736 11.8545 175.097 12.285C175.612 12.8985 176.242 13.3924 176.888 13.8568C177.449 14.2596 178.02 14.6533 178.583 15.0531C178.679 15.1217 178.771 15.2006 178.876 15.2848C178.785 15.3336 178.71 15.3765 178.632 15.4161C177.89 15.7926 177.176 16.2146 176.518 16.7259C176.121 17.0342 175.737 17.3617 175.466 17.7898C175.03 18.4783 174.876 19.2118 175.201 19.995C175.296 20.2237 175.441 20.4214 175.645 20.5674C175.711 20.6147 175.785 20.6616 175.863 20.6799C176.061 20.7266 176.263 20.7572 176.464 20.7941L177.033 20.7938C177.661 20.7377 178.234 20.5222 178.751 20.1652C179.56 19.6073 180.104 18.8591 180.339 17.8989C180.509 17.2011 180.516 16.5024 180.315 15.8077C180.296 15.7434 180.274 15.6799 180.249 15.6176C180.224 15.5552 180.196 15.4944 180.162 15.4166L181.451 14.6752L181.471 14.6918C181.447 14.7684 181.422 14.8449 181.401 14.9224C181.248 15.4819 181.146 16.0511 181.183 16.6318C181.222 17.2506 181.394 17.8298 181.756 18.3467C182.049 18.7648 182.747 18.7804 183.058 18.3608C183.169 18.2117 183.276 18.0559 183.356 17.8896C183.567 17.4555 183.761 17.0138 183.962 16.575L183.997 16.4948C183.983 16.7025 183.966 16.8849 183.958 17.0676C183.946 17.3527 183.963 17.6363 184.06 17.9076C184.144 18.1397 184.286 18.3131 184.552 18.3437C184.733 18.3645 184.878 18.2812 185.012 18.1757C185.219 18.012 185.391 17.8079 185.517 17.5759C185.873 16.9213 186.239 16.2707 186.562 15.5996C186.912 14.8738 187.217 14.1268 187.542 13.3886L187.595 13.2577C187.672 13.5591 187.726 13.8542 187.824 14.1336C187.938 14.4577 188.08 14.7742 188.234 15.0819C188.307 15.2272 188.299 15.3216 188.197 15.4434C187.774 15.9534 187.359 16.4696 186.943 16.9852C186.851 17.0991 186.759 17.2149 186.682 17.3392C186.636 17.4178 186.605 17.5047 186.592 17.595C186.579 17.6782 186.599 17.7631 186.648 17.832C186.696 17.9009 186.769 17.9484 186.852 17.9646C187.018 18.0005 187.189 18.0126 187.359 18.0007C187.94 17.958 188.467 17.7542 188.933 17.4088C189.537 16.9614 189.731 16.3509 189.585 15.6274C189.545 15.4311 189.475 15.2402 189.407 15.051C189.377 14.9657 189.375 14.9059 189.43 14.8264C189.913 14.1369 190.326 13.4055 190.709 12.6572C190.725 12.6277 190.74 12.5983 190.767 12.5668C190.891 13.2137 191.078 13.8371 191.413 14.4028C191.242 14.5676 191.073 14.7171 190.92 14.8817C190.583 15.2443 190.29 15.6381 190.138 16.1182C190.072 16.3252 190.021 16.5356 190.051 16.7567C190.096 17.1 190.377 17.3231 190.715 17.2449C191.438 17.0777 192.061 16.7372 192.517 16.134C192.824 15.7279 192.852 15.2749 192.724 14.8003C192.688 14.6713 192.646 14.5444 192.601 14.3964C192.78 14.3411 192.954 14.2748 193.133 14.2337C194.067 14.0207 194.99 14.0578 195.89 14.3949C196.415 14.5918 196.84 14.9213 197.091 15.4395C197.398 16.0731 197.229 16.6742 196.631 17.0747C196.576 17.112 196.512 17.1414 196.466 17.1881C196.451 17.2052 196.44 17.2253 196.433 17.2469C196.427 17.2685 196.425 17.2913 196.427 17.3137C196.431 17.3368 196.492 17.3657 196.527 17.3653C196.724 17.3638 196.883 17.2609 197.036 17.1551C197.419 16.8902 197.698 16.5338 197.758 16.0644L197.77 16.0292L197.755 15.7236C197.75 15.7059 197.76 15.6885 197.758 15.6752C197.677 14.9917 197.312 14.4617 196.781 14.0462C196.166 13.5653 195.44 13.3673 194.672 13.3359C194.049 13.3091 193.427 13.4049 192.841 13.6178C192.673 13.6787 192.506 13.7509 192.337 13.8189C192.314 13.7779 192.29 13.7385 192.27 13.6978C192.096 13.3423 191.886 13.0026 191.839 12.5949C191.806 12.3054 191.766 12.0163 191.835 11.73C191.901 11.4546 191.987 11.1838 192.068 10.9121C192.11 10.7723 192.081 10.6939 191.947 10.6309C191.901 10.6077 191.851 10.5914 191.8 10.5825C191.472 10.5349 191.148 10.5621 190.83 10.6545C190.718 10.6873 190.636 10.7503 190.611 10.8748C190.597 10.9462 190.568 11.0147 190.547 11.0852C190.464 11.3783 190.405 11.6769 190.271 11.9561C189.935 12.6564 189.551 13.3303 189.158 13.9993C189.115 14.0715 189.07 14.1424 189.017 14.2299C188.879 13.9412 188.732 13.6821 188.687 13.3783C188.637 13.0348 188.597 12.6919 188.682 12.351C188.746 12.0968 188.829 11.8472 188.905 11.5963C188.942 11.4771 188.925 11.4144 188.817 11.3516C188.762 11.3199 188.701 11.2918 188.639 11.2826C188.303 11.2314 187.959 11.2595 187.635 11.3647C187.534 11.3977 187.48 11.4636 187.449 11.5686C187.357 11.8783 187.279 12.1956 187.151 12.4901C186.631 13.6826 186.096 14.8689 185.561 16.0551C185.45 16.3027 185.319 16.5418 185.193 16.7829C185.161 16.8441 185.115 16.8979 185.075 16.9552C185.043 16.9176 185.031 16.8917 185.031 16.8658C185.032 16.7134 185.014 16.5564 185.043 16.4091C185.132 15.9633 185.231 15.5196 185.339 15.078C185.427 14.7131 185.529 14.3516 185.627 13.9892C185.66 13.8679 185.66 13.7544 185.573 13.6524C185.427 13.4816 185.121 13.4441 184.939 13.5758L184.859 13.6211L184.875 13.4918C184.913 13.2144 184.921 12.9381 184.844 12.6649C184.75 12.3244 184.507 12.1284 184.153 12.1393C183.989 12.1444 183.816 12.1725 183.663 12.2325C183.022 12.4837 182.529 12.9287 182.11 13.464C182.071 13.5137 182.023 13.5554 181.968 13.5866C181.425 13.8874 180.881 14.1844 180.337 14.4825L179.732 14.8142C179.569 14.6593 179.422 14.4986 179.254 14.3623C178.743 13.9453 178.224 13.5386 177.709 13.1263C177.252 12.7609 176.81 12.3802 176.472 11.8963C176.22 11.5363 176.058 11.1424 176.043 10.6972C176.023 10.1301 176.184 9.61181 176.473 9.12937C176.842 8.51212 177.346 8.01675 177.9 7.56806C178.486 7.09369 179.119 6.69094 179.776 6.32325C180.695 5.80894 181.64 5.35369 182.654 5.05313C183.693 4.74488 184.747 4.56844 185.835 4.69144C186.262 4.73981 186.677 4.83769 187.058 5.04675C187.35 5.20669 187.59 5.41613 187.701 5.7435C187.811 6.06562 187.808 6.39206 187.732 6.71925C187.577 7.38187 187.214 7.92806 186.757 8.41613C186.009 9.21619 185.095 9.76088 184.067 10.1207C183.475 10.3278 182.86 10.4591 182.236 10.5113C181.724 10.5542 181.223 10.5088 180.739 10.3309C180.418 10.2129 180.138 10.0326 179.914 9.77081C179.874 9.72394 179.822 9.67313 179.747 9.717C179.674 9.76013 179.661 9.82988 179.686 9.90056C179.727 10.0179 179.765 10.1402 179.829 10.2452C179.989 10.5086 180.224 10.6997 180.482 10.8636C180.977 11.1788 181.531 11.2847 182.105 11.3092C182.977 11.3469 183.827 11.2168 184.666 10.983C185.862 10.6493 186.903 10.0598 187.738 9.12975C188.432 8.35538 188.929 7.48144 189.035 6.42619C189.087 5.91112 189.032 5.40656 188.791 4.93669C188.529 4.42763 188.113 4.04906 187.616 3.78825C186.892 3.40856 186.11 3.1875 185.304 3.1875H184.495C183.519 3.1875 182.574 3.46744 181.656 3.80138C180.961 4.05431 180.28 4.35281 179.618 4.68319C178.178 5.403 176.836 6.27094 175.734 7.46438C175.185 8.05894 174.721 8.715 174.453 9.4875C174.372 9.71814 174.303 9.95253 174.245 10.1899L174.229 10.5292ZM179.465 16.9423C179.402 17.7784 179.023 18.4562 178.404 19.0052C178.056 19.3138 177.656 19.5336 177.191 19.6108C177.022 19.6388 176.849 19.6455 176.686 19.5756C176.452 19.4758 176.4 19.2686 176.395 19.0479C176.388 18.6962 176.512 18.3782 176.68 18.0756C176.901 17.6811 177.224 17.3803 177.569 17.0994C178.113 16.6567 178.703 16.2821 179.307 15.9285L179.353 15.9097C179.446 16.2547 179.491 16.5954 179.465 16.9423ZM184.182 13.3088C184.138 13.5758 184.083 13.8429 184.005 14.1017C183.735 14.9974 183.389 15.8653 183.014 16.7216C182.945 16.8801 182.844 17.0246 182.757 17.1748C182.742 17.1979 182.724 17.219 182.704 17.2374C182.595 17.3445 182.493 17.3389 182.438 17.1988C182.374 17.0361 182.335 16.8619 182.301 16.6896C182.278 16.5739 182.284 16.4524 182.277 16.3339C182.284 15.4913 182.541 14.7255 182.977 14.0126C183.157 13.7186 183.353 13.4385 183.652 13.2525C183.745 13.1947 183.846 13.1501 183.951 13.1201C184.11 13.0753 184.208 13.149 184.182 13.3088ZM187.4 17.409L188.557 16.0584C188.605 16.56 187.752 17.5612 187.4 17.409ZM191.094 16.5002C191.013 16.5471 190.924 16.5808 190.84 16.6241C190.763 16.6639 190.738 16.6237 190.735 16.5577C190.734 16.5121 190.74 16.4665 190.753 16.4226C190.909 15.8717 191.197 15.4014 191.624 15.0189L191.654 15.0036C191.858 15.5726 191.623 16.1976 191.094 16.5002Z" fill="#CB6699"/>
<g clip-path="url(#clip1_9_45)">
<path d="M215.001 4.80035C211.801 4.80035 209.801 6.39973 209.001 9.59979C210.2 8.00023 211.601 7.40042 213.2 7.80035C214.114 8.02798 214.766 8.69023 215.489 9.4241C216.666 10.6179 218.027 12 221.001 12C224.201 12 226.2 10.4004 227.001 7.1996C225.801 8.8001 224.401 9.39992 222.801 8.99998C221.888 8.77217 221.236 8.1101 220.512 7.37623C219.337 6.18242 217.975 4.80035 215.001 4.80035ZM209.001 12C205.801 12 203.801 13.5995 203.001 16.8004C204.2 15.1999 205.601 14.6 207.2 15C208.114 15.2278 208.766 15.8899 209.489 16.6237C210.666 17.8175 212.027 19.1996 215.001 19.1996C218.201 19.1996 220.2 17.6002 221.001 14.4002C219.801 15.9997 218.401 16.5995 216.801 16.1996C215.888 15.972 215.236 15.3097 214.512 14.5759C213.336 13.382 211.975 12 209.001 12Z" fill="#38B2AC"/>
</g>
<path d="M232.264 0.263977H255.736V23.7362H232.264V0.263977Z" fill="#F0DB4F"/>
<path d="M253.815 18.138C253.643 17.0672 252.945 16.1677 250.877 15.329C250.158 14.9989 249.357 14.7624 249.118 14.2179C249.034 13.901 249.022 13.7225 249.076 13.5307C249.23 12.9082 249.973 12.7142 250.562 12.8927C250.941 13.0198 251.3 13.3121 251.517 13.7784C252.53 13.1225 252.528 13.1269 253.235 12.6761C252.976 12.2747 252.838 12.0894 252.668 11.9177C252.059 11.2372 251.229 10.8868 249.902 10.9136L249.21 11.003C248.547 11.1705 247.916 11.5183 247.546 11.9846C246.435 13.2454 246.751 15.4519 248.103 16.3599C249.435 17.3597 251.392 17.5871 251.642 18.522C251.885 19.6665 250.801 20.037 249.723 19.9054C248.929 19.7402 248.487 19.3365 248.01 18.6024C247.131 19.1111 247.131 19.1111 246.227 19.6309C246.441 20.0994 246.666 20.3115 247.026 20.7174C248.726 22.442 252.981 22.3573 253.744 19.7469C253.775 19.6573 253.98 19.0595 253.815 18.138ZM245.024 11.0518H242.829L242.82 16.7278C242.82 17.9349 242.882 19.0415 242.686 19.3807C242.365 20.0479 241.532 19.9652 241.153 19.8358C240.767 19.646 240.571 19.3762 240.343 18.9949C240.281 18.8854 240.234 18.8006 240.218 18.794L238.433 19.8872C238.73 20.4964 239.167 21.0251 239.727 21.3686C240.564 21.8707 241.688 22.0247 242.864 21.7547C243.63 21.5317 244.29 21.0699 244.636 20.367C245.136 19.4454 245.028 18.33 245.024 17.0962C245.035 15.0834 245.024 13.071 245.024 11.0518Z" fill="#323330"/>
<path d="M262.805 6.03395C260.737 9.00601 260.994 12.8732 262.574 16.0315C262.611 16.1072 262.651 16.1816 262.69 16.2561L262.763 16.3984L262.81 16.4803L262.892 16.6277C262.941 16.7141 262.991 16.8002 263.043 16.8863L263.129 17.028C263.186 17.1201 263.244 17.211 263.304 17.3018L263.378 17.4169C263.461 17.5397 263.545 17.6623 263.632 17.7827L263.639 17.7921L263.682 17.8498C263.757 17.9535 263.834 18.0559 263.913 18.1571L264 18.2678C264.07 18.3557 264.141 18.4431 264.213 18.5301L264.295 18.6276C264.392 18.7424 264.491 18.8557 264.592 18.9673L264.598 18.9735L264.61 18.9863C264.709 19.0939 264.81 19.2001 264.912 19.3048L265.009 19.4025C265.088 19.4824 265.169 19.5609 265.25 19.6391L265.349 19.7329C265.458 19.8354 265.568 19.9359 265.68 20.0342L265.685 20.0383L265.743 20.0875C265.841 20.173 265.942 20.2579 266.043 20.3411L266.168 20.4403C266.25 20.5067 266.334 20.572 266.418 20.6361L266.552 20.7379C266.645 20.8063 266.739 20.8736 266.833 20.9395L266.936 21.012L266.964 21.0321C267.053 21.0938 267.145 21.1532 267.237 21.2126L267.355 21.2914C267.495 21.3803 267.638 21.4682 267.782 21.5531L267.9 21.6197C268.006 21.6808 268.113 21.7408 268.221 21.7995C268.279 21.831 268.339 21.8608 268.398 21.891C268.475 21.931 268.55 21.9715 268.628 22.0103L268.681 22.0359L268.775 22.0813C268.895 22.1387 269.016 22.1951 269.139 22.2495L269.216 22.284C269.356 22.3454 269.497 22.4042 269.64 22.4605L269.743 22.5011C269.875 22.552 270.009 22.6022 270.143 22.6495L270.194 22.6669C270.341 22.7185 270.49 22.7663 270.64 22.813L270.748 22.8452C270.901 22.8911 271.052 22.9461 271.209 22.9751C281.21 24.799 284.115 16.9652 284.115 16.9652C281.675 20.1439 277.344 20.9824 273.241 20.0488C273.085 20.0138 272.935 19.9652 272.783 19.9204L272.669 19.8857C272.521 19.8404 272.374 19.7926 272.228 19.7423L272.167 19.7203C272.037 19.6743 271.907 19.6262 271.778 19.5761L271.669 19.5332C271.528 19.4775 271.388 19.4194 271.249 19.3586L271.166 19.3215C271.047 19.2679 270.929 19.213 270.811 19.1567L270.709 19.1076C270.617 19.0628 270.526 19.0151 270.435 18.9683C270.374 18.9362 270.312 18.906 270.252 18.8726C270.142 18.8131 270.032 18.7518 269.924 18.6885L269.813 18.6266C269.669 18.5417 269.527 18.4544 269.386 18.3647L269.27 18.2878C269.168 18.2221 269.066 18.1546 268.966 18.0855L268.868 18.0167C268.771 17.9484 268.676 17.8791 268.58 17.8088L268.453 17.7124C268.366 17.6459 268.279 17.5783 268.194 17.5095L268.078 17.4167C267.969 17.3274 267.861 17.2365 267.755 17.1443L267.719 17.1145C267.604 17.0132 267.491 16.9102 267.38 16.8056L267.284 16.7136C267.201 16.6348 267.12 16.5555 267.04 16.4741L266.944 16.3787C266.842 16.2747 266.742 16.1691 266.644 16.0618L266.63 16.0461C266.526 15.9327 266.425 15.8174 266.326 15.7003L266.246 15.6058C266.172 15.5167 266.099 15.4265 266.027 15.3355L265.947 15.2357C265.861 15.1248 265.777 15.0126 265.695 14.8993C263.417 11.7917 262.598 7.50583 264.419 3.98608L262.805 6.03395ZM269.224 3.5297C267.728 5.68183 267.81 8.56295 268.976 10.839C269.172 11.2216 269.393 11.5905 269.638 11.9432C269.862 12.2644 270.11 12.6465 270.408 12.9045C270.517 13.0236 270.628 13.1398 270.743 13.2529L270.832 13.3401C270.944 13.4489 271.058 13.5551 271.175 13.6585L271.189 13.6705L271.192 13.6738C271.323 13.7876 271.456 13.8981 271.592 14.0051L271.683 14.076C271.82 14.1815 271.96 14.2835 272.102 14.3818L272.114 14.391C272.177 14.4345 272.241 14.475 272.305 14.517L272.396 14.5768C272.498 14.6423 272.601 14.706 272.706 14.7671L272.75 14.7926C272.841 14.8448 272.932 14.8961 273.024 14.946L273.122 14.9968C273.186 15.03 273.249 15.064 273.314 15.0962L273.343 15.1093C273.475 15.1742 273.608 15.2368 273.743 15.2959L273.832 15.3323C273.941 15.3784 274.05 15.4234 274.16 15.4654L274.301 15.517C274.401 15.5541 274.501 15.5878 274.602 15.6218L274.738 15.6655C274.882 15.7101 275.024 15.7665 275.174 15.7915C282.896 17.0708 284.679 11.1253 284.679 11.1253C283.072 13.4396 279.96 14.544 276.639 13.6819C276.492 13.6433 276.346 13.6011 276.201 13.5555L276.07 13.513C275.967 13.4798 275.865 13.4446 275.764 13.4076L275.626 13.3562C275.516 13.3138 275.406 13.2695 275.297 13.2235L275.208 13.1859C275.072 13.1269 274.938 13.0644 274.805 12.9986C274.737 12.9654 274.67 12.9304 274.603 12.8959L274.487 12.8359C274.401 12.7893 274.315 12.7411 274.231 12.6915L274.17 12.6568C274.066 12.5959 273.962 12.5329 273.86 12.4678L273.767 12.4056C273.7 12.3621 273.633 12.3179 273.567 12.273C273.425 12.1746 273.286 12.0728 273.149 11.9678L273.055 11.8937C271.602 10.7462 270.449 9.17758 269.902 7.39914C269.328 5.55489 269.451 3.48451 270.446 1.80414L269.224 3.5297ZM274.623 1.65883C273.742 2.95633 273.655 4.5677 274.267 6.00058C274.912 7.52176 276.234 8.71483 277.777 9.28089C277.84 9.30433 277.904 9.32533 277.968 9.34726L278.053 9.37407C278.144 9.40258 278.234 9.43576 278.328 9.45358C282.592 10.2775 283.748 7.26564 284.056 6.8222C283.043 8.28076 281.341 8.63083 279.252 8.12383C279.087 8.08389 278.905 8.02426 278.746 7.96782C278.542 7.89526 278.342 7.81208 278.146 7.71864C277.775 7.53996 277.423 7.32491 277.094 7.07664C275.225 5.6582 274.064 2.95276 275.283 0.749451" fill="#0868AC"/>
<path d="M311.145 5.68763L302.876 0.88669C302.355 0.58969 301.676 0.58969 301.15 0.88669L292.794 5.68763C292.256 5.99719 291.875 6.579 291.875 7.20132V16.7904C291.875 17.4128 292.266 17.9948 292.804 18.306L295.012 19.56C296.067 20.0798 296.44 20.0798 296.92 20.0798C298.483 20.0798 299.375 19.1349 299.375 17.487V8.02013C299.375 7.88644 299.305 7.6875 299.174 7.6875H298.12C297.986 7.6875 297.688 7.88644 297.688 8.01994V17.4868C297.688 18.2173 297.027 18.9443 295.792 18.3268L293.511 17.0119C293.431 16.9688 293.375 16.8819 293.375 16.7904V7.20132C293.375 7.11094 293.479 7.02019 293.559 6.97388L301.889 2.18119C301.966 2.13713 302.081 2.13713 302.158 2.18119L310.386 6.97275C310.465 7.02019 310.437 7.10813 310.437 7.20132V16.7904C310.437 16.8819 310.472 16.971 310.394 17.0151L302.128 21.8106C302.057 21.8531 301.969 21.8531 301.891 21.8106L299.771 20.5451C299.707 20.508 299.631 20.4947 299.57 20.529C298.98 20.8633 298.871 20.9078 298.318 21.0996C298.182 21.147 297.981 21.2293 298.395 21.4613L301.17 23.1026C301.434 23.2556 301.735 23.3362 302.041 23.3363C302.349 23.3363 302.65 23.2564 302.916 23.1026L311.144 18.306C311.682 17.9925 311.938 17.4128 311.938 16.7904V7.20132C311.938 6.579 311.683 5.99869 311.145 5.68763ZM304.608 15.2709C302.41 15.2709 301.925 14.6644 301.764 13.5711C301.745 13.4533 301.645 13.3125 301.525 13.3125H300.451C300.318 13.3125 300.211 13.4738 300.211 13.6061C300.211 15.006 300.972 16.7021 304.608 16.7021C307.241 16.7021 308.75 15.6793 308.75 13.8692C308.75 12.0744 307.537 11.6034 304.984 11.2656C302.404 10.9245 302.142 10.7522 302.142 10.1477C302.142 9.64932 302.364 8.98463 304.275 8.98463C305.982 8.98463 306.611 9.351 306.87 10.5017C306.892 10.6099 306.991 10.6875 307.102 10.6875H308.181C308.248 10.6875 308.311 10.6607 308.358 10.6133C308.403 10.5623 308.426 10.4983 308.42 10.4297C308.253 8.44819 306.937 7.52475 304.274 7.52475C301.906 7.52475 300.493 8.52488 300.493 10.2013C300.493 12.0197 301.899 12.5222 304.172 12.747C306.892 13.0136 307.104 13.4111 307.104 13.9461C307.104 14.8751 306.358 15.2709 304.608 15.2709Z" fill="#83CD29"/>
<path fill-rule="evenodd" clip-rule="evenodd" d="M335.507 8.02722C335.808 8.89778 336.025 9.78653 336.096 10.7077C336.185 11.8505 336.144 12.9853 335.903 14.1093C335.897 14.1403 335.883 14.1693 335.872 14.1993C335.797 14.1995 335.72 14.1902 335.646 14.2016C335.022 14.2997 334.398 14.4013 333.774 14.5023C333.13 14.6068 332.484 14.7071 331.841 14.8187C331.613 14.858 331.331 14.811 331.239 15.1263C331.236 15.135 331.21 15.1365 331.194 15.1413L331.226 13.2568L331.194 8.70953L331.494 8.65797C331.986 8.57753 332.477 8.49597 332.968 8.41778C333.555 8.3246 334.142 8.23403 334.729 8.1431C334.988 8.10278 335.248 8.06585 335.507 8.02722Z" fill="#439934"/>
<path fill-rule="evenodd" clip-rule="evenodd" d="M330.574 20.6351C330.257 20.3627 329.929 20.1023 329.626 19.8158C327.991 18.2741 326.796 16.4597 326.207 14.2721C326.045 13.6701 325.937 13.0583 325.902 12.4361C325.878 12.0008 325.842 11.5615 325.873 11.1283C325.955 9.97633 326.121 8.83539 326.459 7.72576L326.478 7.69989C326.511 7.74358 326.558 7.7822 326.575 7.83152C326.904 8.80277 327.232 9.77477 327.558 10.7473C328.581 13.8036 329.603 16.8606 330.628 19.9161C330.648 19.9757 330.7 20.0246 330.737 20.0785L330.574 20.6351Z" fill="#45A538"/>
<path fill-rule="evenodd" clip-rule="evenodd" d="M335.507 8.02725C335.248 8.06588 334.988 8.10281 334.729 8.14275C334.142 8.23369 333.555 8.32425 332.968 8.41744C332.477 8.49563 331.985 8.57719 331.494 8.65763L331.194 8.70919L331.191 8.51325C331.182 8.35219 331.164 8.19131 331.163 8.03025C331.15 7.00313 331.142 5.976 331.129 4.94888C331.121 4.30594 331.109 3.66319 331.096 3.02044C331.088 2.62106 331.079 2.2215 331.061 1.82269C331.052 1.60838 331.017 1.39519 331.003 1.18088C330.995 1.05769 331.006 0.933564 331.008 0.809814C331.162 1.10663 331.311 1.40569 331.469 1.70025C331.718 2.166 332.114 2.50913 332.471 2.88356C333.882 4.36331 334.883 6.08381 335.507 8.02725Z" fill="#46A037"/>
<path fill-rule="evenodd" clip-rule="evenodd" d="M331.194 15.1412C331.209 15.1363 331.236 15.1348 331.238 15.1262C331.33 14.8108 331.613 14.8579 331.841 14.8185C332.484 14.7071 333.13 14.6066 333.774 14.5022C334.398 14.4011 335.022 14.2995 335.646 14.2015C335.72 14.1898 335.797 14.1994 335.872 14.1992C335.756 14.6155 335.664 15.0407 335.516 15.4455C335.348 15.9047 335.145 16.3528 334.929 16.7921C334.606 17.4474 334.206 18.0619 333.738 18.6227C333.378 19.0555 332.977 19.4554 332.575 19.8505C332.352 20.0689 332.09 20.2468 331.847 20.4431L331.784 20.4L331.556 20.2054L331.32 19.6892C331.16 19.087 331.072 18.4677 331.059 17.8446L331.063 17.7394L331.095 17.2845C331.106 17.1293 331.12 16.9742 331.127 16.8186C331.151 16.2595 331.172 15.7003 331.194 15.1412Z" fill="#409433"/>
<path fill-rule="evenodd" clip-rule="evenodd" d="M331.194 15.1412C331.172 15.7003 331.151 16.2594 331.127 16.8187C331.121 16.9744 331.107 17.1294 331.096 17.2847L330.952 17.3389C330.634 16.401 330.315 15.4731 330.003 14.5427C329.488 13.0035 328.978 11.4619 328.463 9.92231C328.047 8.67964 327.629 7.43795 327.207 6.19724C327.187 6.13912 327.131 6.09374 327.091 6.04237L328.009 4.35449C328.041 4.40924 328.083 4.46043 328.102 4.5193C328.528 5.77595 328.951 7.03333 329.371 8.29143C329.918 9.92831 330.462 11.5665 331.008 13.2036C331.03 13.269 331.066 13.3294 331.1 13.4027L331.226 13.2564L331.194 15.1412Z" fill="#4FAA41"/>
<path fill-rule="evenodd" clip-rule="evenodd" d="M327.092 6.04254C327.131 6.09392 327.187 6.13929 327.207 6.19742C327.629 7.43813 328.048 8.67982 328.464 9.92248C328.978 11.462 329.488 13.0037 330.003 14.5429C330.315 15.473 330.634 16.4012 330.953 17.339L331.096 17.2849L331.064 17.7397L331.035 17.8445C330.985 18.3425 330.943 18.8417 330.882 19.3385C330.852 19.5875 330.787 19.832 330.738 20.0786C330.7 20.0248 330.648 19.9759 330.628 19.9162C329.603 16.8605 328.581 13.8037 327.558 10.7475C327.232 9.77485 326.904 8.80291 326.575 7.83167C326.558 7.78235 326.511 7.74373 326.478 7.70004L327.092 6.04254Z" fill="#4AA73C"/>
<path fill-rule="evenodd" clip-rule="evenodd" d="M331.225 13.2566L331.1 13.4029C331.065 13.3296 331.029 13.269 331.008 13.2038C330.462 11.5667 329.918 9.92852 329.371 8.29164C328.95 7.03354 328.527 5.77616 328.102 4.51952C328.082 4.46064 328.041 4.40927 328.009 4.3547L329.145 2.86127C329.18 2.90908 329.231 2.95164 329.25 3.00545C329.565 3.92814 329.877 4.85195 330.188 5.77633C330.478 6.63958 330.764 7.50414 331.057 8.36627C331.077 8.42402 331.145 8.46489 331.191 8.51364L331.193 8.70958C331.204 10.225 331.215 11.7409 331.225 13.2566Z" fill="#57AE47"/>
<path fill-rule="evenodd" clip-rule="evenodd" d="M331.191 8.51326C331.146 8.46451 331.077 8.42363 331.058 8.36588C330.764 7.50376 330.478 6.63919 330.188 5.77595C329.878 4.85157 329.565 3.92795 329.25 3.00507C329.232 2.95126 329.181 2.9087 329.145 2.86088C329.514 2.49938 329.872 2.12495 330.256 1.78013C330.597 1.47376 330.872 1.14526 330.884 0.661133C330.885 0.641071 330.895 0.621008 330.912 0.564758L331.009 0.809633C331.006 0.933571 330.995 1.05751 331.003 1.1807C331.017 1.39501 331.052 1.6082 331.062 1.82251C331.08 2.22132 331.088 2.62088 331.096 3.02026C331.109 3.66301 331.121 4.30576 331.129 4.9487C331.142 5.97582 331.15 7.00294 331.163 8.03007C331.164 8.19151 331.181 8.35219 331.191 8.51326Z" fill="#60B24F"/>
<path fill-rule="evenodd" clip-rule="evenodd" d="M330.737 20.0785C330.786 19.8319 330.851 19.5872 330.882 19.3384C330.943 18.8417 330.985 18.3424 331.034 17.8444L331.047 17.8425L331.059 17.8446C331.072 18.4677 331.16 19.0871 331.321 19.6892C331.288 19.7327 331.241 19.7715 331.224 19.8207C331.087 20.205 330.959 20.5924 330.822 20.9768C330.803 21.0293 330.751 21.0702 330.714 21.1163L330.574 20.6352L330.737 20.0785Z" fill="#A9AA88"/>
<path fill-rule="evenodd" clip-rule="evenodd" d="M330.714 21.1165C330.751 21.0703 330.803 21.0295 330.822 20.977C330.959 20.5926 331.088 20.2054 331.224 19.8208C331.241 19.7717 331.288 19.7329 331.321 19.6894L331.556 20.2058C331.51 20.2718 331.445 20.3312 331.42 20.4047L330.969 21.7283C330.95 21.7813 330.887 21.8188 330.845 21.8636L330.714 21.1165Z" fill="#B6B598"/>
<path fill-rule="evenodd" clip-rule="evenodd" d="M330.845 21.8634C330.887 21.8188 330.95 21.7811 330.969 21.7281L331.42 20.4045C331.445 20.3312 331.51 20.2716 331.556 20.2056L331.784 20.4C331.674 20.5088 331.613 20.6344 331.649 20.7932L331.58 21.0197C331.549 21.0585 331.503 21.0923 331.488 21.1367C331.33 21.5873 331.18 22.0403 331.022 22.4908C331.002 22.548 330.946 22.5928 330.907 22.6431C330.886 22.383 330.865 22.1235 330.845 21.8634Z" fill="#C2C1A7"/>
<path fill-rule="evenodd" clip-rule="evenodd" d="M330.907 22.6431C330.946 22.5927 331.002 22.5478 331.022 22.4908C331.18 22.0405 331.331 21.5875 331.488 21.1367C331.503 21.0925 331.549 21.0585 331.58 21.0197L331.485 22.0594C331.46 22.0888 331.423 22.1145 331.41 22.1488C331.303 22.4515 331.201 22.7563 331.093 23.059C331.071 23.1214 331.028 23.1765 330.994 23.2348C330.965 23.196 330.912 23.1585 330.909 23.118C330.9 22.9603 330.906 22.8015 330.907 22.6431Z" fill="#CECDB7"/>
<path fill-rule="evenodd" clip-rule="evenodd" d="M330.994 23.2348C331.028 23.1763 331.07 23.1212 331.093 23.0589C331.201 22.7565 331.302 22.4516 331.41 22.1488C331.422 22.1145 331.46 22.089 331.485 22.0594L331.487 22.7419L331.259 23.3276L330.994 23.2348Z" fill="#DBDAC7"/>
<path fill-rule="evenodd" clip-rule="evenodd" d="M331.259 23.3278L331.487 22.7421L331.534 23.4351L331.259 23.3278Z" fill="#EBE9DC"/>
<path fill-rule="evenodd" clip-rule="evenodd" d="M331.649 20.7934C331.613 20.6346 331.674 20.5088 331.784 20.4002L331.847 20.4433L331.649 20.7934Z" fill="#CECDB7"/>
<path fill-rule="evenodd" clip-rule="evenodd" d="M331.059 17.8447L331.047 17.8427L331.035 17.8446L331.064 17.7397L331.059 17.8447Z" fill="#4FAA41"/>
<path d="M371.472 5.00036C371.102 5.01084 371.219 5.10471 370.419 5.27793C369.611 5.45289 368.624 5.39919 367.754 5.72031C365.157 6.6788 364.635 9.9546 362.274 11.1281C360.51 12.0052 358.729 12.0752 357.128 12.5166C356.076 12.8069 354.925 13.4022 353.972 14.1251C353.232 14.6862 353.213 15.1797 352.44 15.8837C351.613 16.6365 349.154 15.8964 348.039 17.0487C348.398 17.3682 348.556 17.4577 349.263 17.3748C349.117 17.6191 348.253 17.825 348.422 18.1845C348.6 18.5627 350.688 18.819 352.586 17.8108C353.47 17.3412 354.174 16.6643 355.55 16.5028C357.332 16.2939 359.384 16.6368 361.446 16.8985C361.14 17.7008 360.526 18.2343 360.034 18.8732C359.882 19.0176 360.34 19.0338 360.863 18.9466C361.803 18.742 362.481 18.5772 363.19 18.2138C364.062 17.7672 364.194 16.6223 365.264 16.3746C365.86 17.1806 367.481 17.371 368.487 16.7263C367.604 16.5064 367.36 14.8534 367.658 14.1251C367.94 13.4355 368.219 12.3326 368.503 11.4211C368.808 10.4423 368.921 9.20859 369.29 8.70996C369.846 7.95982 370.46 7.70222 370.992 7.27923C371.525 6.85615 372.013 6.44446 371.997 5.47648C371.992 5.16468 371.809 4.99096 371.472 5.00036Z" fill="#002B64"/>
<path d="M348.806 18.1154C350.157 18.2858 350.979 18.1154 352.064 17.7013C352.988 17.3489 353.88 16.6223 354.97 16.3143C356.572 15.8621 358.328 16.3149 360.04 16.4052C360.457 16.4272 360.872 16.4275 361.281 16.3883C361.918 16.0433 361.905 14.7532 362.526 14.635C362.508 16.4451 361.664 17.5297 360.782 18.58C362.641 18.2911 363.754 17.345 364.505 16.0814C364.733 15.6982 364.928 15.286 365.1 14.854C365.366 15.0337 365.215 15.5805 365.349 15.8768C366.629 15.2492 367.362 13.8169 367.848 12.3682C368.41 10.6917 368.64 8.99405 369.002 8.49797C369.355 8.01378 369.906 7.71534 370.408 7.40536C370.979 7.05289 371.488 6.68558 371.576 6.01406C370.974 5.96506 370.835 5.84249 370.746 5.57556C370.444 5.72503 370.167 5.75703 369.854 5.76528C369.582 5.77254 369.284 5.7619 368.919 5.79481C365.905 6.06726 365.521 8.99116 363.589 10.6486C363.447 10.7701 363.295 10.8832 363.136 10.9872C362.459 11.4309 361.629 11.748 360.866 12.0048C359.63 12.4203 358.455 12.4498 357.295 12.8085C356.444 13.0717 355.579 13.4535 354.88 13.8745C354.712 13.9756 354.548 14.083 354.389 14.1965C353.979 14.4918 353.71 14.8195 353.449 15.1566C353.181 15.5039 352.921 15.8613 352.526 16.2027C351.885 16.7562 349.492 16.3641 348.649 16.8774C348.555 16.9345 348.48 17.0031 348.429 17.0854C348.889 17.2693 349.196 17.1564 349.725 17.2079C349.795 17.6496 348.634 17.9121 348.806 18.1155V18.1154ZM367.07 14.9336C367.106 15.4403 367.441 16.4455 367.736 16.69C367.158 16.8137 366.162 16.6093 365.907 16.2505C366.038 15.7325 366.721 15.2591 367.07 14.9336Z" fill="#C59B6C"/>
<path d="M367.917 6.89183C368.344 7.21782 369.239 6.95617 369.079 6.3075C368.416 6.25917 368.032 6.45722 367.917 6.89183ZM370.892 6.13371C370.779 6.34322 370.562 6.61336 370.562 7.14663C370.561 7.23819 370.482 7.30096 370.481 7.15983C370.487 6.63852 370.644 6.41325 370.81 6.11713C370.888 5.99579 370.934 6.04586 370.892 6.13371Z" fill="#002B64"/>
<path d="M370.778 6.0549C370.644 6.25476 370.322 6.61944 370.268 7.15073C370.259 7.2418 370.174 7.29822 370.187 7.15742C370.245 6.63874 370.503 6.31407 370.698 6.03188C370.787 5.91714 370.829 5.9706 370.778 6.0549ZM370.674 5.9503C370.521 6.13953 370.025 6.57745 369.921 7.10306C369.902 7.19297 369.813 7.24312 369.839 7.10372C369.947 6.59106 370.375 6.18811 370.597 5.9216C370.696 5.81354 370.732 5.87004 370.674 5.9503ZM370.581 5.83367C370.4 6.00211 369.808 6.56054 369.621 7.068C369.588 7.15469 369.492 7.19338 369.54 7.0586C369.728 6.56434 370.247 6.03188 370.509 5.79556C370.625 5.70095 370.652 5.76133 370.581 5.83367Z" fill="#002B64"/>
<defs>
<linearGradient id="paint0_linear_9_45" x1="48.3905" y1="9.92654" x2="52.6912" y2="9.92654" gradientUnits="userSpaceOnUse">
<stop stop-color="#2972E2"/>
<stop offset="1" stop-color="#26C7FC"/>
</linearGradient>
<linearGradient id="paint1_linear_9_45" x1="42.1519" y1="13.6538" x2="45.1035" y2="12.8939" gradientUnits="userSpaceOnUse">
<stop stop-color="#26C4FB"/>
<stop offset="1" stop-color="#2977E3"/>
</linearGradient>
<linearGradient id="paint2_linear_9_45" x1="42.8365" y1="12.8932" x2="45.908" y2="12.1024" gradientUnits="userSpaceOnUse">
<stop stop-color="#26C4FB"/>
<stop offset="1" stop-color="#2977E3"/>
</linearGradient>
<linearGradient id="paint3_linear_9_45" x1="43.7389" y1="7.9756" x2="48.3905" y2="7.9756" gradientUnits="userSpaceOnUse">
<stop stop-color="#2972E2"/>
<stop offset="1" stop-color="#26C7FC"/>
</linearGradient>
<linearGradient id="paint4_linear_9_45" x1="48.2485" y1="9.31051" x2="48.201" y2="10.1915" gradientUnits="userSpaceOnUse">
<stop stop-color="#26C4FB"/>
<stop offset="1" stop-color="#2977E3"/>
</linearGradient>
<linearGradient id="paint5_linear_9_45" x1="31.3298" y1="8.60743" x2="40.5577" y2="6.91733" gradientUnits="userSpaceOnUse">
<stop stop-color="#26C4FB"/>
<stop offset="1" stop-color="#2977E3"/>
</linearGradient>
<linearGradient id="paint6_linear_9_45" x1="35.078" y1="6.66013" x2="43.7918" y2="6.66013" gradientUnits="userSpaceOnUse">
<stop stop-color="#26C4FB"/>
<stop offset="1" stop-color="#2977E3"/>
</linearGradient>
<linearGradient id="paint7_linear_9_45" x1="48.3905" y1="7.58966" x2="50.6479" y2="7.58966" gradientUnits="userSpaceOnUse">
<stop stop-color="#279FF0"/>
<stop offset="1" stop-color="#8DE1FD"/>
</linearGradient>
<linearGradient id="paint8_linear_9_45" x1="48.3769" y1="8.05673" x2="52.6776" y2="8.05673" gradientUnits="userSpaceOnUse">
<stop stop-color="#279FF0"/>
<stop offset="1" stop-color="#8DE1FD"/>
</linearGradient>
<linearGradient id="paint9_linear_9_45" x1="51.0099" y1="11.2842" x2="52.6912" y2="11.2842" gradientUnits="userSpaceOnUse">
<stop stop-color="#279FF0"/>
<stop offset="1" stop-color="#8DE1FD"/>
</linearGradient>
<linearGradient id="paint10_linear_9_45" x1="44.6478" y1="4.71539" x2="48.8758" y2="4.71539" gradientUnits="userSpaceOnUse">
<stop stop-color="#26C4FB"/>
<stop offset="1" stop-color="#2977E3"/>
</linearGradient>
<linearGradient id="paint11_linear_9_45" x1="40.3338" y1="3.96174" x2="46.9729" y2="3.96174" gradientUnits="userSpaceOnUse">
<stop stop-color="#279FF0"/>
<stop offset="1" stop-color="#8DE1FD"/>
</linearGradient>
<linearGradient id="paint12_linear_9_45" x1="35.078" y1="5.11541" x2="44.7225" y2="5.11541" gradientUnits="userSpaceOnUse">
<stop stop-color="#26C4FB"/>
<stop offset="1" stop-color="#2977E3"/>
</linearGradient>
<linearGradient id="paint13_linear_9_45" x1="44.6605" y1="6.01275" x2="48.8759" y2="5.75904" gradientUnits="userSpaceOnUse">
<stop stop-color="#2972E2"/>
<stop offset="1" stop-color="#26C7FC"/>
</linearGradient>
<linearGradient id="paint14_linear_9_45" x1="45.6995" y1="7.58966" x2="48.8759" y2="7.58966" gradientUnits="userSpaceOnUse">
<stop stop-color="#2972E2"/>
<stop offset="1" stop-color="#26C7FC"/>
</linearGradient>
<linearGradient id="paint15_linear_9_45" x1="43.6527" y1="8.26986" x2="48.3906" y2="8.26986" gradientUnits="userSpaceOnUse">
<stop stop-color="#2972E2"/>
<stop offset="1" stop-color="#26C7FC"/>
</linearGradient>
<linearGradient id="paint16_linear_9_45" x1="42.9138" y1="8.34718" x2="36.3343" y2="10.1551" gradientUnits="userSpaceOnUse">
<stop stop-color="#2972E2"/>
<stop offset="1" stop-color="#26C7FC"/>
</linearGradient>
<linearGradient id="paint17_linear_9_45" x1="45.989" y1="11.8771" x2="45.7508" y2="8.9033" gradientUnits="userSpaceOnUse">
<stop stop-color="#26C4FB"/>
<stop offset="1" stop-color="#2977E3"/>
</linearGradient>
<linearGradient id="paint18_linear_9_45" x1="32.8072" y1="10.5486" x2="42.9794" y2="7.88269" gradientUnits="userSpaceOnUse">
<stop stop-color="#26C4FB"/>
<stop offset="1" stop-color="#2977E3"/>
</linearGradient>
<linearGradient id="paint19_linear_9_45" x1="29.3" y1="11.8476" x2="39.9984" y2="11.8476" gradientUnits="userSpaceOnUse">
<stop stop-color="#26C4FB"/>
<stop offset="1" stop-color="#2977E3"/>
</linearGradient>
<linearGradient id="paint20_linear_9_45" x1="29.8905" y1="12.5056" x2="39.9984" y2="12.5056" gradientUnits="userSpaceOnUse">
<stop stop-color="#26C4FB"/>
<stop offset="1" stop-color="#2977E3"/>
</linearGradient>
<linearGradient id="paint21_linear_9_45" x1="35.0114" y1="12.3328" x2="37.1841" y2="15.0515" gradientUnits="userSpaceOnUse">
<stop stop-color="#279FF0"/>
<stop offset="1" stop-color="#8DE1FD"/>
</linearGradient>
<linearGradient id="paint22_linear_9_45" x1="35.2545" y1="13.0464" x2="39.9984" y2="14.7032" gradientUnits="userSpaceOnUse">
<stop stop-color="#26C4FB"/>
<stop offset="1" stop-color="#2977E3"/>
</linearGradient>
<linearGradient id="paint23_linear_9_45" x1="39.9984" y1="13.5025" x2="45.5621" y2="13.5025" gradientUnits="userSpaceOnUse">
<stop stop-color="#26C4FB"/>
<stop offset="1" stop-color="#2977E3"/>
</linearGradient>
<linearGradient id="paint24_linear_9_45" x1="39.9984" y1="14.1903" x2="44.8045" y2="14.1903" gradientUnits="userSpaceOnUse">
<stop stop-color="#2972E2"/>
<stop offset="1" stop-color="#26C7FC"/>
</linearGradient>
<linearGradient id="paint25_linear_9_45" x1="35.9521" y1="14.0944" x2="40.5472" y2="15.6768" gradientUnits="userSpaceOnUse">
<stop stop-color="#26C4FB"/>
<stop offset="1" stop-color="#2977E3"/>
</linearGradient>
<linearGradient id="paint26_linear_9_45" x1="39.9984" y1="14.9214" x2="44.0717" y2="14.9214" gradientUnits="userSpaceOnUse">
<stop stop-color="#2972E2"/>
<stop offset="1" stop-color="#26C7FC"/>
</linearGradient>
<linearGradient id="paint27_linear_9_45" x1="38.0668" y1="15.4881" x2="41.1494" y2="15.42" gradientUnits="userSpaceOnUse">
<stop stop-color="#26C4FB"/>
<stop offset="1" stop-color="#2977E3"/>
</linearGradient>
<linearGradient id="paint28_linear_9_45" x1="39.9984" y1="15.2667" x2="42.8252" y2="15.2667" gradientUnits="userSpaceOnUse">
<stop stop-color="#26C4FB"/>
<stop offset="1" stop-color="#2977E3"/>
</linearGradient>
<linearGradient id="paint29_linear_9_45" x1="39.7603" y1="9.96681" x2="45.4996" y2="14.6545" gradientUnits="userSpaceOnUse">
<stop stop-color="#26C4FB"/>
<stop offset="1" stop-color="#2977E3"/>
</linearGradient>
<clipPath id="clip0_9_45">
<rect width="24" height="24" fill="white" transform="translate(58)"/>
</clipPath>
<clipPath id="clip1_9_45">
<rect width="24" height="24" fill="white" transform="translate(203)"/>
</clipPath>
</defs>
</svg>
